<?xml version="1.0" standalone="no"?>
<!DOCTYPE svg PUBLIC "-//W3C//DTD SVG 20010904//EN"
 "http://www.w3.org/TR/2001/REC-SVG-20010904/DTD/svg10.dtd">
<svg version="1.0" xmlns="http://www.w3.org/2000/svg"
 width="3544.000000pt" height="1300.000000pt" viewBox="0 0 3544.000000 1300.000000"
 preserveAspectRatio="xMidYMid meet">

<g transform="translate(0.000000,1300.000000) scale(0.100000,-0.100000)"
fill="#000000" stroke="none">
<path d="M8645 11800 c-166 -26 -296 -88 -395 -190 -107 -109 -168 -235 -207
-427 -17 -83 -18 -243 -18 -3048 0 -2809 1 -2965 18 -3048 67 -328 244 -538
517 -614 92 -25 357 -25 450 0 227 63 393 215 477 438 68 182 66 133 70 1392
l4 1137 -225 0 -226 0 0 -1097 c-1 -1166 -2 -1191 -48 -1296 -33 -74 -70 -114
-135 -147 -110 -55 -256 -37 -338 42 -22 22 -52 64 -65 93 -57 123 -54 -56
-54 3090 0 1836 4 2922 10 2960 34 213 158 328 334 312 111 -11 187 -59 233
-151 60 -118 57 -59 60 -1183 l4 -1033 224 0 225 0 0 948 c0 521 -5 1003 -10
1071 -20 251 -88 421 -224 556 -93 92 -183 143 -311 175 -93 24 -281 34 -370
20z"/>
<path d="M1192 9743 l3 -1988 23 -73 c75 -244 216 -387 442 -449 106 -29 429
-21 578 14 l22 5 0 -1361 0 -1361 225 0 225 0 0 3600 0 3600 -225 0 -225 0 0
-2034 c0 -1791 -2 -2035 -15 -2040 -43 -16 -248 -38 -317 -33 -136 9 -219 75
-265 210 -17 49 -18 170 -21 1975 l-2 1922 -225 0 -225 0 2 -1987z"/>
<path d="M3544 11688 c3 -24 134 -1142 291 -2485 l286 -2443 -86 -722 c-47
-397 -94 -759 -105 -805 -63 -265 -193 -340 -443 -254 l-55 19 -5 -26 c-3 -15
-18 -112 -33 -216 -33 -220 -40 -200 91 -243 108 -35 316 -44 414 -18 239 62
385 264 461 635 18 90 880 6532 880 6578 l0 22 -235 0 -234 0 -6 -32 c-3 -18
-70 -538 -150 -1155 l-145 -1122 -39 -646 c-22 -356 -42 -649 -45 -652 -15
-15 -36 9 -36 42 0 20 -16 304 -35 633 -35 595 -35 601 -167 1765 l-132 1167
-239 0 -239 0 6 -42z"/>
<path d="M5840 8129 l0 -3601 448 5 c469 6 515 10 646 56 184 65 314 204 375
404 40 132 42 222 39 1582 -4 1409 -2 1338 -58 1488 -46 123 -157 231 -285
278 -33 12 -64 25 -68 29 -5 4 26 25 68 45 136 68 229 185 272 345 17 60 18
148 18 1220 l0 1155 -22 85 c-67 252 -225 414 -472 483 -71 20 -104 21 -518
25 l-443 3 0 -3602z m816 3176 c70 -20 125 -71 160 -147 l29 -63 3 -1115 c3
-1229 4 -1198 -58 -1308 -63 -109 -145 -142 -352 -142 l-138 0 0 1395 0 1395
153 0 c106 0 169 -5 203 -15z m44 -3223 c106 -52 168 -141 190 -272 7 -45 10
-465 8 -1335 l-3 -1270 -23 -56 c-43 -106 -118 -167 -232 -189 -29 -5 -117
-10 -196 -10 l-144 0 0 1581 0 1581 178 -4 c158 -3 182 -6 222 -26z"/>
<path d="M9960 11515 l0 -215 290 0 290 0 0 -3385 0 -3385 225 0 225 0 0 3385
0 3385 295 0 295 0 0 215 0 215 -810 0 -810 0 0 -215z"/>
<path d="M12170 8130 l0 -3600 353 0 c398 0 567 11 676 40 232 64 379 216 444
460 l22 85 0 1385 0 1385 -22 82 c-42 156 -106 253 -216 324 -32 21 -82 45
-110 55 -29 9 -56 20 -60 24 -4 3 27 24 70 45 131 65 216 167 269 325 18 52
19 116 22 1199 2 1016 1 1154 -13 1230 -58 308 -244 492 -550 546 -69 12 -175
15 -486 15 l-399 0 0 -3600z m809 3174 c67 -20 131 -78 162 -147 l24 -52 3
-1133 c2 -1009 1 -1140 -14 -1195 -28 -111 -80 -178 -169 -219 -44 -20 -69
-23 -207 -26 l-158 -4 0 1396 0 1396 153 0 c110 0 168 -4 206 -16z m42 -3220
c101 -47 165 -134 189 -259 8 -44 10 -412 8 -1345 l-3 -1285 -29 -63 c-34 -74
-95 -132 -164 -158 -35 -13 -91 -18 -224 -22 l-178 -4 0 1582 0 1582 178 -4
c155 -3 183 -6 223 -24z"/>
<path d="M14790 11724 c0 -15 -590 -7084 -596 -7136 l-6 -58 226 0 226 0 0 23
c0 12 27 344 60 737 33 393 60 725 60 738 l0 22 349 0 349 0 6 -52 c3 -29 31
-361 61 -738 31 -377 58 -695 61 -707 l4 -23 225 0 c173 0 225 3 225 13 1 24
-591 7122 -596 7155 l-5 32 -324 0 c-179 0 -325 -3 -325 -6z m344 -1126 c4
-62 16 -324 27 -582 16 -388 41 -735 144 -2004 69 -845 125 -1539 125 -1544 0
-4 -142 -8 -315 -8 l-316 0 6 48 c3 26 62 713 131 1527 120 1422 125 1501 144
2020 11 297 20 566 20 598 0 42 4 57 14 57 11 0 15 -26 20 -112z"/>
<path d="M18280 8129 l0 -3601 443 5 c461 5 501 8 639 53 194 63 339 223 393
431 8 35 20 107 25 160 13 129 13 2517 0 2646 -25 259 -110 406 -287 494 -43
22 -88 42 -101 45 -32 9 -27 22 16 37 99 35 209 135 261 239 69 137 66 72 66
1342 l0 1145 -23 90 c-35 137 -83 227 -172 316 -59 60 -93 85 -160 117 -153
74 -161 75 -657 79 l-443 4 0 -3602z m859 3156 c62 -34 102 -84 128 -158 17
-49 18 -118 18 -1177 l0 -1125 -22 -71 c-30 -95 -78 -155 -150 -191 -55 -26
-66 -28 -215 -32 l-158 -3 0 1397 0 1397 173 -4 c170 -3 173 -3 226 -33z m14
-3213 c83 -41 127 -96 160 -197 l22 -70 0 -1290 c0 -1218 -1 -1293 -18 -1345
-29 -88 -75 -143 -154 -182 l-67 -33 -178 -4 -178 -3 0 1582 0 1582 173 -4
c173 -3 173 -3 240 -36z"/>
<path d="M22130 8130 l0 -3600 680 0 680 0 0 -295 0 -295 195 0 195 0 0 510 0
509 -107 3 -108 3 -3 3383 -2 3382 -220 0 -220 0 0 -3385 0 -3385 -315 0 -315
0 0 3385 0 3385 -230 0 -230 0 0 -3600z"/>
<path d="M24490 8131 l0 -3601 358 0 c532 1 646 13 809 91 117 56 197 137 257
261 86 178 81 81 81 1623 0 1292 -1 1364 -19 1440 -21 92 -60 182 -105 243
-42 57 -135 124 -212 152 -35 13 -68 26 -72 30 -5 4 26 25 68 45 139 69 228
181 272 345 17 60 18 147 18 1220 l0 1155 -22 83 c-70 262 -218 414 -472 485
-71 20 -104 21 -518 25 l-443 3 0 -3600z m819 3173 c71 -21 141 -90 167 -165
18 -52 19 -101 19 -1199 l0 -1145 -23 -58 c-35 -85 -79 -137 -147 -172 -57
-29 -64 -30 -217 -33 l-158 -4 0 1396 0 1396 153 0 c110 0 168 -4 206 -16z
m53 -3227 c92 -45 145 -119 173 -242 13 -56 15 -233 13 -1347 l-3 -1283 -24
-59 c-30 -76 -99 -146 -166 -171 -39 -14 -90 -19 -227 -23 l-178 -4 0 1582 0
1582 178 -4 c169 -3 180 -5 234 -31z"/>
<path d="M26710 8130 l0 -3600 610 0 610 0 0 210 0 210 -380 0 -380 0 0 1540
0 1540 325 0 325 0 0 200 0 200 -325 0 -325 0 0 1445 0 1445 380 0 380 0 0
205 0 205 -610 0 -610 0 0 -3600z"/>
<path d="M28370 11515 l0 -215 290 0 290 0 0 -3385 0 -3385 225 0 225 0 0
3385 0 3385 295 0 295 0 0 215 0 215 -810 0 -810 0 0 -215z"/>
<path d="M30746 11683 c-6 -45 -596 -7119 -596 -7142 0 -8 65 -11 223 -9 l222
3 62 730 c34 402 62 742 62 758 l1 27 350 0 c193 0 350 -3 350 -7 0 -5 27
-347 62 -760 l62 -753 228 0 c125 0 228 3 228 7 0 16 -590 7084 -596 7136 l-6
57 -323 0 -323 0 -6 -47z m344 -1005 c0 -18 11 -283 25 -588 21 -477 41 -763
144 -2040 66 -817 123 -1509 126 -1537 l6 -53 -316 0 -317 0 6 58 c4 31 63
725 131 1542 122 1449 126 1499 145 2045 11 308 20 570 20 583 0 13 6 22 15
22 10 0 15 -10 15 -32z"/>
<path d="M32485 11708 c14 -60 515 -3354 515 -3386 0 -20 -128 -872 -285
-1894 -157 -1021 -285 -1866 -285 -1877 0 -21 5 -21 234 -21 l234 0 6 38 c4
20 87 645 185 1387 136 1022 186 1428 206 1670 28 342 32 373 44 359 4 -5 20
-155 35 -334 21 -259 65 -607 216 -1717 105 -766 190 -1395 190 -1398 0 -3
106 -5 236 -5 219 0 235 1 230 18 -2 9 -134 865 -292 1901 l-288 1883 258
1682 c142 924 260 1689 263 1699 4 16 -12 17 -231 17 -130 0 -236 -4 -236 -9
0 -5 -72 -546 -159 -1202 -123 -920 -166 -1272 -188 -1531 -15 -186 -31 -338
-35 -338 -12 0 -15 28 -43 365 -19 227 -71 665 -181 1511 -85 656 -154 1195
-154 1198 0 3 -108 6 -240 6 l-240 0 5 -22z"/>
<path d="M8500 3190 c-210 -26 -388 -115 -532 -269 -132 -140 -204 -311 -215
-511 -19 -345 151 -643 452 -793 231 -115 532 -127 777 -31 198 77 370 241
454 430 87 197 88 469 4 675 -142 344 -528 548 -940 499z m255 -265 c210 -44
369 -191 431 -401 24 -82 24 -248 0 -329 -73 -245 -263 -396 -516 -412 -120
-8 -215 11 -313 60 -193 96 -306 287 -307 514 0 109 14 172 60 268 47 97 101
160 180 214 135 89 301 120 465 86z"/>
<path d="M22240 3190 c-356 -44 -642 -280 -725 -601 -104 -400 66 -792 420
-969 152 -76 227 -93 420 -93 189 0 267 16 410 87 89 44 225 147 225 169 0 7
-40 52 -89 101 l-90 89 -55 -51 c-216 -196 -593 -188 -805 18 -227 220 -224
625 6 840 104 98 219 146 373 156 155 11 321 -44 428 -141 l52 -47 95 88 94
89 -69 66 c-51 49 -95 79 -162 112 -106 52 -175 72 -303 87 -100 11 -130 11
-225 0z"/>
<path d="M28595 3190 c-38 -5 -114 -23 -167 -41 -276 -88 -474 -296 -549 -574
-31 -116 -32 -317 0 -434 80 -304 306 -518 627 -598 108 -26 333 -24 449 5
134 34 257 97 341 176 l69 66 -93 90 -94 90 -55 -49 c-273 -244 -749 -160
-907 160 -94 190 -84 430 23 596 101 157 259 246 461 259 155 11 315 -42 427
-141 l52 -46 93 90 93 89 -35 37 c-90 95 -250 179 -399 210 -87 19 -251 26
-336 15z"/>
<path d="M1190 2355 l0 -815 695 0 695 0 0 -180 0 -180 135 0 135 0 0 305 0
304 -122 3 -123 3 -3 688 -2 687 -145 0 -145 0 0 -690 0 -690 -415 0 -415 0 0
690 0 690 -145 0 -145 0 0 -815z"/>
<path d="M3140 2354 l0 -816 463 5 c488 5 519 8 650 57 116 43 212 139 248
248 31 92 25 243 -13 324 -43 92 -136 168 -262 212 -15 5 -8 13 40 45 74 48
106 82 139 149 47 94 49 257 3 351 -33 69 -107 137 -191 176 -128 60 -176 65
-652 65 l-425 0 0 -816z m795 585 c143 -26 205 -96 205 -229 0 -84 -22 -135
-74 -175 -67 -51 -110 -58 -383 -63 l-253 -4 0 241 0 241 223 0 c123 0 250 -5
282 -11z m87 -690 c114 -24 179 -81 198 -174 27 -128 -25 -232 -139 -277 -53
-21 -73 -23 -353 -26 l-298 -3 0 245 0 246 270 0 c161 0 290 -5 322 -11z"/>
<path d="M4880 2355 l0 -815 610 0 610 0 0 125 0 125 -462 2 -463 3 0 225 0
225 398 3 397 2 0 120 0 120 -397 2 -398 3 0 215 0 215 448 3 447 2 0 120 0
120 -595 0 -595 0 0 -815z"/>
<path d="M6250 3045 l0 -125 270 0 270 0 0 -690 0 -690 145 0 145 0 0 690 0
690 275 0 275 0 0 125 0 125 -690 0 -690 0 0 -125z"/>
<path d="M9700 2868 c0 -337 7 -393 60 -499 63 -125 170 -210 325 -259 86 -28
324 -39 431 -21 61 10 213 50 258 67 15 6 16 -21 16 -305 l0 -311 145 0 145 0
0 815 0 815 -145 0 -145 0 0 -379 0 -378 -92 -31 c-126 -41 -228 -56 -345 -50
-172 9 -272 67 -329 190 l-29 63 -3 293 -4 292 -144 0 -144 0 0 -302z"/>
<path d="M11550 2355 l0 -815 150 0 150 0 0 355 0 355 425 0 425 0 0 -355 0
-355 150 0 150 0 0 815 0 815 -150 0 -150 0 0 -335 0 -335 -425 0 -425 0 0
335 0 335 -150 0 -150 0 0 -815z"/>
<path d="M13976 3138 c-7 -18 -170 -379 -361 -803 -191 -424 -349 -776 -352
-783 -4 -10 27 -12 147 -10 l153 3 80 188 80 187 415 -2 415 -3 81 -187 81
-188 153 0 c119 0 153 3 149 13 -2 6 -168 373 -367 815 l-363 802 -148 0 -149
0 -14 -32z m319 -618 c83 -193 152 -355 153 -360 2 -6 -106 -10 -307 -10 -181
0 -311 4 -311 9 0 5 63 157 141 338 77 180 145 338 150 351 5 12 12 22 16 22
5 0 76 -158 158 -350z"/>
<path d="M15566 3153 c-193 -41 -333 -139 -413 -290 -44 -81 -63 -168 -63
-288 0 -174 44 -289 150 -395 38 -39 92 -80 130 -99 36 -19 66 -35 68 -36 2
-2 -73 -113 -167 -248 -94 -135 -171 -248 -171 -251 0 -3 67 -6 149 -6 l150 0
156 230 156 230 219 0 220 0 0 -230 0 -230 145 0 145 0 0 815 0 815 -402 -1
c-317 0 -418 -4 -472 -16z m584 -573 l0 -340 -225 0 c-128 0 -247 5 -277 11
-118 25 -209 101 -241 200 -21 63 -22 189 -3 253 30 98 97 162 206 197 46 15
94 18 298 18 l242 1 0 -340z"/>
<path d="M17560 2355 l0 -815 140 0 140 0 0 536 c0 294 4 533 8 530 5 -3 127
-201 273 -440 l264 -436 65 0 65 0 270 450 270 450 3 -545 2 -545 140 0 140 0
0 815 0 815 -122 0 -123 -1 -310 -525 c-170 -290 -315 -533 -321 -541 -8 -12
-77 96 -334 526 l-323 541 -123 0 -124 0 0 -815z"/>
<path d="M20326 3143 c-25 -49 -716 -1590 -716 -1596 0 -4 67 -7 149 -7 l149
0 80 188 80 187 415 3 415 2 76 -177 c42 -98 80 -184 84 -191 7 -9 45 -12 159
-10 l151 3 -367 812 -366 813 -147 0 -147 0 -15 -27z m318 -628 c80 -187 146
-346 146 -353 0 -9 -71 -12 -305 -12 -240 0 -305 3 -305 13 0 11 281 675 296
699 4 5 10 6 14 1 4 -4 73 -161 154 -348z"/>
<path d="M23080 3045 l0 -125 270 0 270 0 0 -690 0 -690 145 0 145 0 0 690 0
690 270 0 270 0 0 125 0 125 -685 0 -685 0 0 -125z"/>
<path d="M24720 2355 l0 -815 610 0 610 0 0 125 0 125 -460 0 -460 0 0 230 0
230 395 0 395 0 0 120 0 120 -395 0 -395 0 0 220 0 220 445 0 445 0 0 120 0
120 -595 0 -595 0 0 -815z"/>
<path d="M26290 2355 l0 -815 150 0 150 0 0 240 0 240 243 0 c134 0 270 5 303
11 265 46 441 192 499 410 20 72 19 236 -1 313 -43 169 -173 305 -350 367
-125 44 -184 49 -600 49 l-394 0 0 -815z m873 536 c126 -50 192 -154 190 -301
-1 -123 -40 -201 -130 -258 -83 -53 -140 -62 -400 -62 l-233 0 0 326 0 325
258 -3 c240 -3 261 -5 315 -27z"/>
<path d="M29660 2355 l0 -815 145 0 145 0 0 345 0 345 158 0 158 0 239 -345
240 -345 310 0 310 0 80 190 80 190 415 0 415 -1 80 -187 81 -187 153 -3 c143
-2 152 -1 147 16 -3 9 -167 375 -365 812 l-358 795 -150 3 -149 3 -359 -798
c-197 -439 -361 -801 -364 -805 -5 -6 -557 782 -569 812 -1 4 121 182 272 396
l274 389 -146 3 c-80 1 -151 1 -157 -2 -6 -2 -114 -155 -240 -339 l-230 -336
-162 -1 -163 0 0 340 0 340 -145 0 -145 0 0 -815z m2438 163 c84 -194 152
-356 152 -360 0 -5 -140 -8 -311 -8 -292 0 -311 1 -305 18 26 71 301 702 306
702 3 0 74 -159 158 -352z"/>
<path d="M33425 3164 c-102 -20 -133 -29 -187 -50 -225 -92 -347 -282 -348
-540 0 -95 27 -213 67 -287 41 -76 138 -168 216 -207 37 -18 67 -35 67 -38 0
-2 -74 -111 -163 -241 -90 -130 -167 -242 -171 -248 -6 -10 26 -13 146 -13
l153 1 153 229 152 230 225 0 225 0 0 -230 0 -230 145 0 145 0 0 815 0 815
-402 -1 c-222 -1 -412 -3 -423 -5z m535 -585 l0 -340 -257 3 c-239 3 -262 5
-314 26 -76 30 -132 81 -166 150 -25 51 -28 67 -28 162 0 88 4 113 23 155 39
85 104 138 207 171 28 9 117 13 288 13 l247 1 0 -341z"/>
</g>
</svg>
