<svg width="4728" height="4728" viewBox="0 0 4728 4728" fill="none" xmlns="http://www.w3.org/2000/svg">
<path d="M2299.87 481.999C2299.47 482.266 2289.33 482.799 2277.33 483.199C2265.2 483.599 2253.87 484.266 2252 484.666C2250.13 485.066 2246.93 485.733 2244.8 485.999C2234.27 487.999 2219.07 499.066 2216.67 506.533C2216.27 508.133 2215.2 509.333 2214.4 509.333C2213.6 509.333 2213.33 509.733 2213.73 510.133C2214.13 510.666 2214 512.133 2213.2 513.599C2209.6 520.266 2209.07 541.999 2212.4 546.266C2213.07 547.199 2213.33 547.999 2212.8 547.999C2212.27 547.999 2213.2 550.533 2214.8 553.599C2218.27 560.266 2224.8 567.199 2229.07 568.533C2230.67 569.066 2232 570.133 2232 570.799C2232 571.599 2232.53 571.866 2233.2 571.466C2235.47 569.999 2239.07 574.133 2238.13 577.066C2237.6 578.666 2236.53 579.999 2235.87 579.999C2235.2 579.999 2234.67 580.933 2234.67 581.999C2234.67 583.066 2234.13 583.999 2233.33 583.999C2232.67 583.999 2232 584.933 2232 585.999C2232 587.066 2231.47 587.999 2230.67 587.999C2230 587.999 2229.33 588.666 2229.33 589.599C2229.33 590.399 2227.87 593.066 2226 595.466C2224.13 597.866 2222.67 600.399 2222.67 601.199C2222.67 601.999 2222.13 602.666 2221.33 602.666C2220.67 602.666 2220 603.599 2220 604.666C2220 605.733 2219.47 606.666 2218.8 606.666C2218.13 606.666 2217.33 607.733 2216.8 608.933C2216.4 610.266 2215.6 612.133 2215.2 613.199C2214.53 614.666 2216.67 614.799 2226.8 614.399C2237.2 613.866 2239.47 613.333 2239.73 611.599C2240 610.266 2240.8 609.333 2241.47 609.333C2242.13 609.333 2242.67 608.533 2242.67 607.466C2242.67 606.399 2243.47 604.666 2244.4 603.733C2246.27 601.466 2249.07 597.466 2250.27 594.666C2250.8 593.599 2251.47 592.399 2251.87 591.999C2253.07 591.066 2255.87 586.399 2257.2 583.333C2259.73 577.599 2262.27 576.799 2279.33 576.399L2295.87 575.999L2296.8 581.999C2297.2 585.333 2297.33 588.933 2296.8 589.999C2296.4 591.199 2296.4 596.533 2296.93 601.999L2297.73 611.866L2309.47 611.599L2321.07 611.333L2320.53 599.999C2320.27 593.733 2319.73 580.533 2319.33 570.666C2319.07 560.799 2318.27 542.133 2317.87 529.333C2317.33 516.533 2316.93 501.466 2316.67 495.999C2316.53 490.533 2316.27 485.066 2316.13 483.999C2316 482.533 2314 481.866 2308.27 481.733C2303.87 481.466 2300.13 481.599 2299.87 481.999ZM2294.13 506.133C2294.67 507.999 2294.67 511.066 2294.27 513.066C2293.87 515.199 2294 524.266 2294.67 533.333C2295.33 542.399 2295.47 551.466 2295.2 553.333L2294.4 556.799L2273.73 556.933C2262.27 557.066 2252.27 556.799 2251.47 556.266C2250.67 555.866 2249.2 555.333 2248.4 555.199C2247.47 555.066 2245.73 553.999 2244.53 552.799C2243.47 551.599 2242 550.666 2241.33 550.666C2240.4 550.666 2236.13 542.799 2234.93 538.666C2234.53 537.599 2234.27 533.333 2234.27 529.333C2234.27 515.066 2242.53 506.266 2258 504.399C2260.93 503.999 2263.47 503.599 2263.6 503.466C2263.73 503.333 2270.53 503.199 2278.67 503.066C2293.2 502.799 2293.33 502.933 2294.13 506.133Z" fill="black"/>
<path d="M2123.6 494.136C2123.47 494.403 2120.67 494.803 2117.47 495.203C2114.4 495.47 2111.6 496.003 2111.6 496.27C2110.8 497.603 2105.07 514.936 2104.8 516.27C2104.67 517.203 2104.13 518.803 2103.6 519.603C2102.93 520.536 2102.8 521.336 2103.2 521.336C2103.6 521.336 2102.13 526.136 2100 532.003C2097.87 537.87 2096.4 542.67 2096.8 542.67C2097.33 542.67 2096.93 543.603 2096 544.67C2095.07 545.736 2094.67 546.67 2095.2 546.67C2095.6 546.67 2094.13 551.47 2092 557.336C2089.87 563.203 2088.4 568.003 2088.8 568.003C2089.33 568.003 2088.93 568.936 2088 570.003C2087.07 571.07 2086.67 572.003 2087.2 572.003C2087.6 572.003 2086.13 576.803 2084 582.67C2081.87 588.536 2080.4 593.336 2080.8 593.336C2081.33 593.336 2080.93 594.27 2080 595.336C2079.07 596.403 2078.67 597.336 2079.2 597.336C2079.6 597.336 2078.53 601.07 2076.8 605.603C2075.07 610.27 2073.6 614.403 2073.47 614.936C2073.47 615.603 2073.2 616.27 2073.2 616.67C2073.07 617.07 2072.8 617.87 2072.67 618.67C2072.53 619.336 2072.27 620.136 2072.13 620.27C2071.87 620.536 2071.47 622.136 2071.2 624.003C2070.8 625.736 2070.13 627.736 2069.47 628.403C2068.13 629.736 2013.33 576.536 2013.33 574.003C2013.33 572.936 2014.13 570.536 2015.2 568.403C2019.07 560.27 2025.87 545.603 2028.93 538.936C2036 522.936 2039.07 516.27 2042.13 510.27L2045.33 504.003L2041.73 504.67C2020.27 508.67 2018.8 509.203 2017.87 513.203C2017.33 515.07 2015.87 518.403 2014.53 520.67C2013.33 522.803 2012.13 525.203 2012.13 526.003C2012.13 526.67 2011.07 529.47 2009.87 532.003C2008.67 534.536 2006.4 539.336 2004.93 542.67C2003.6 546.003 2001.2 550.936 1999.87 553.603C1998.4 556.27 1997.33 559.47 1997.33 560.536C1997.33 563.47 1990.93 570.536 1988.27 570.403C1987.07 570.403 1984.27 570.67 1982 571.203C1968.8 574.003 1968.67 574.003 1967.47 567.203C1967.07 565.07 1966.4 561.87 1966 560.003C1965.6 558.136 1965.07 555.203 1964.67 553.336C1964.13 549.336 1962.93 543.336 1962 538.67C1961.6 536.803 1960.93 533.47 1960.67 531.336C1960.27 529.07 1959.73 526.136 1959.47 524.67C1959.07 523.203 1958.8 521.47 1958.8 520.803C1958.67 520.27 1957.07 520.136 1955.07 520.67C1952.93 521.203 1949.87 521.87 1948 522.27C1946.13 522.67 1943.73 523.07 1942.67 523.336C1941.6 523.603 1939.33 523.87 1937.6 523.87C1935.6 524.003 1934.8 524.536 1935.47 525.603C1936 526.403 1936.53 528.403 1936.8 529.87C1937.07 532.803 1938.13 538.536 1939.33 544.003C1939.73 545.87 1940.27 548.803 1940.67 550.67C1941.2 554.67 1942.4 560.67 1943.33 565.336C1943.73 567.203 1944.27 570.136 1944.67 572.003C1945.2 575.603 1946.27 581.47 1947.33 586.67C1947.73 588.536 1948.27 591.736 1948.67 594.003C1948.93 596.136 1949.6 599.47 1950 601.336C1950.93 606.003 1952.13 612.003 1952.67 616.003C1953.07 617.87 1953.6 620.803 1954 622.67C1954.4 624.536 1954.93 627.47 1955.33 629.336C1955.73 631.203 1956.27 634.136 1956.67 636.003C1957.6 640.136 1958.93 648.136 1959.07 650.27C1959.07 651.47 1960.4 651.736 1963.2 651.203C1965.47 650.803 1968.8 650.136 1970.67 649.87C1972.53 649.47 1975.2 649.07 1976.67 648.67C1978.13 648.403 1980 648.136 1980.8 648.136C1982.53 648.003 1982.27 644.003 1979.33 630.67C1978.93 628.803 1978.27 625.47 1978 623.336C1977.6 621.07 1977.07 617.87 1976.67 616.003C1975.47 610.003 1974.4 604.67 1974 600.936C1973.73 598.936 1973.07 596.67 1972.67 596.003C1971.73 594.536 1973.2 593.603 1978.13 592.803C1980.27 592.403 1983.47 591.736 1985.33 591.336C1996.4 588.936 1994.67 587.87 2020.4 612.403C2044.93 636.003 2045.07 636.003 2054 634.136C2056.27 633.603 2060.4 632.936 2063.33 632.67C2066.27 632.27 2070.13 631.603 2072 631.203C2073.87 630.67 2077.47 630.136 2080 629.87C2092.27 628.536 2092.27 628.536 2094.13 624.003C2095.2 621.603 2096.4 617.87 2096.8 615.603C2097.07 613.336 2097.73 611.07 2098.13 610.403C2098.53 609.87 2099.07 608.003 2099.33 606.403C2100.67 599.736 2102.8 596.27 2105.73 596.403C2107.33 596.403 2112.27 596.003 2116.67 595.47C2121.07 594.803 2126.53 594.136 2128.67 594.003C2130.93 593.736 2136 593.07 2140 592.67C2147.33 591.603 2148.53 591.47 2160.67 590.136C2168 589.336 2168 589.47 2172 598.936C2172.93 601.07 2174.13 602.67 2174.67 602.67C2175.33 602.67 2176.27 603.87 2176.67 605.47C2177.2 606.936 2178.8 610.27 2180.4 612.67L2183.33 617.336L2192 616.403C2196.8 616.003 2202 615.603 2203.73 615.736C2206.8 615.736 2208 611.603 2205.2 610.003C2204.53 609.47 2203.2 607.736 2202.53 606.27C2201.87 604.67 2200.13 601.47 2198.67 599.336C2197.2 597.07 2195.47 594.136 2194.67 592.67C2193.87 591.203 2192.13 588.136 2190.67 586.003C2189.2 583.736 2187.47 580.803 2186.67 579.336C2185.87 577.87 2184.13 574.803 2182.67 572.67C2181.2 570.403 2179.47 567.47 2178.67 566.003C2177.87 564.536 2176.13 561.47 2174.67 559.336C2173.2 557.07 2171.47 554.136 2170.67 552.67C2169.87 551.203 2168.13 548.136 2166.67 546.003C2165.2 543.736 2163.47 540.803 2162.67 539.336C2161.87 537.87 2160.13 534.803 2158.67 532.67C2157.2 530.403 2155.6 527.736 2155.07 526.67C2154.53 525.603 2153.33 523.87 2152.4 522.936C2151.47 522.003 2150.67 520.27 2150.67 519.203C2150.67 518.136 2150.13 517.336 2149.47 517.336C2148.8 517.336 2147.73 516.003 2147.2 514.403C2146.8 512.803 2145.47 510.67 2144.53 509.603C2143.47 508.67 2142.67 506.936 2142.67 505.87C2142.67 504.803 2142.13 504.003 2141.47 504.003C2140.8 504.003 2139.73 502.67 2139.2 501.07C2137.6 495.87 2134.27 493.603 2128.93 493.736C2126.13 493.736 2123.73 494.003 2123.6 494.136ZM2130.27 525.07C2131.2 526.003 2132 527.736 2132 528.67C2132 529.603 2132.8 531.336 2133.73 532.27C2135.73 534.136 2138.93 539.736 2141.6 545.603C2142.53 547.736 2143.73 549.336 2144.13 549.336C2144.67 549.336 2145.87 551.47 2146.67 554.003C2147.47 556.536 2148.67 558.67 2149.33 558.67C2149.87 558.67 2151.07 560.27 2151.87 562.27C2152.67 564.403 2154 567.07 2154.93 568.27C2157.47 571.736 2157.2 571.87 2138 574.136C2134.4 574.536 2129.87 575.07 2128 575.336C2109.47 577.47 2107.6 577.47 2108.67 575.07C2109.2 573.736 2109.87 571.203 2110.13 569.47C2110.53 567.736 2111.33 565.203 2112 564.003C2112.67 562.67 2113.6 559.736 2114 557.336C2114.4 554.936 2115.33 551.87 2116.13 550.536C2116.8 549.07 2117.07 548.003 2116.53 548.003C2116.13 548.003 2116.4 547.07 2117.33 546.003C2118.27 544.936 2118.67 544.003 2118.27 544.003C2117.87 544.003 2118.4 541.87 2119.47 539.336C2120.53 536.803 2121.07 534.67 2120.67 534.67C2120.4 534.67 2121.2 531.603 2122.67 528.003C2124.13 524.27 2124.93 521.336 2124.53 521.336C2124.13 521.336 2124.27 520.67 2124.8 519.87C2125.33 518.803 2126.13 519.203 2127.07 520.803C2127.87 522.27 2129.33 524.136 2130.27 525.07Z" fill="black"/>
<path d="M1864.93 540.934C1864.8 540.934 1862.93 541.467 1860.67 541.867C1851.6 543.467 1848.8 544.267 1845.07 546.134C1842.8 547.334 1839.73 548.4 1838.27 548.8C1836.67 549.067 1835.2 549.867 1834.93 550.667C1834.67 551.334 1833.6 552 1832.53 552C1830.4 552 1812 569.734 1812 571.867C1812 572.667 1811.33 573.334 1810.4 573.334C1809.6 573.334 1809.33 573.734 1809.73 574.134C1810.27 574.667 1809.6 576.667 1808.27 578.534C1804 584.8 1800.67 597.734 1800.8 607.334C1800.8 614 1803.47 628.8 1805.07 631.2C1805.6 632 1806 632.934 1806 633.334C1806.27 635.334 1813.47 648.134 1815.6 650.267C1817.07 651.734 1819.07 654 1820.13 655.467C1821.2 656.934 1825.33 660.134 1829.33 662.667C1833.33 665.2 1837.07 667.867 1837.6 668.667C1838.13 669.334 1838.67 669.6 1838.67 669.067C1838.67 668.534 1840.93 669.067 1843.6 670.134C1846.27 671.334 1849.73 672.534 1851.2 673.067C1856.93 674.534 1887.33 673.734 1887.33 672C1887.33 671.867 1888.67 671.6 1890.4 671.2C1898.93 669.6 1910.67 662.534 1919.33 653.867C1933.33 639.6 1933.33 636.667 1919.33 630.667L1913.33 628.134L1911.07 631.6C1904.93 640.8 1893.73 649.067 1883.87 651.6C1880.13 652.534 1860.4 652.667 1857.07 651.734C1855.73 651.467 1854.27 650.8 1853.87 650.267C1853.33 649.734 1851.73 649.334 1850.4 649.334C1849.07 649.334 1848 648.667 1848 648C1848 647.2 1847.2 646.667 1846.13 646.667C1841.73 646.667 1831.07 632.667 1827.33 622C1823.47 610.8 1824 598.8 1828.67 587.467C1832.53 578.267 1847.87 565.867 1858.8 563.2C1865.87 561.467 1880.27 561.6 1884.8 563.467C1887.2 564.534 1889.73 565.467 1890.27 565.6C1894.4 566.4 1896 567.2 1896 568.534C1896 570.134 1899.47 564.8 1900.8 560.934C1901.2 559.734 1902.13 558.667 1902.8 558.667C1903.47 558.667 1904 557.867 1904 556.8C1904 555.734 1904.93 554 1906 552.8C1907.87 550.934 1907.73 550.534 1905.07 548.8C1900.4 545.734 1892.67 542.8 1887.07 541.867C1882.53 541.067 1865.47 540.4 1864.93 540.934Z" fill="black"/>
<path d="M1717.47 586.669C1713.73 588.002 1710.67 588.802 1710.67 588.402C1710.67 588.002 1709.73 588.402 1708.67 589.335C1707.6 590.269 1706.67 590.535 1706.67 590.002C1706.67 589.469 1705.73 589.735 1704.67 590.669C1703.6 591.602 1702.67 591.869 1702.67 591.335C1702.67 590.802 1701.73 591.069 1700.67 592.002C1699.6 592.935 1698.67 593.202 1698.67 592.669C1698.67 592.135 1697.73 592.402 1696.67 593.335C1695.6 594.269 1694.67 594.535 1694.67 594.002C1694.67 593.469 1693.73 593.735 1692.67 594.669C1691.6 595.602 1690.67 595.869 1690.67 595.335C1690.67 594.802 1689.87 594.935 1689.07 595.602C1688.13 596.402 1681.47 598.935 1674.27 601.335C1665.07 604.402 1661.6 606.002 1662.4 607.069C1663.07 608.002 1666.4 617.602 1669.87 628.535C1673.33 639.469 1676.8 649.869 1677.6 651.869C1678.4 653.735 1679.2 655.735 1679.33 656.269C1679.6 656.935 1679.87 657.602 1680 658.002C1680.13 658.402 1680.53 659.202 1680.67 660.002C1680.8 660.669 1681.2 661.602 1681.33 662.002C1681.47 662.402 1681.87 663.202 1682 664.002C1682.13 664.669 1682.53 665.602 1682.67 666.002C1682.8 666.402 1683.2 667.202 1683.33 668.002C1683.47 668.669 1683.87 669.602 1684 670.002C1684.13 670.402 1684.53 671.202 1684.67 672.002C1684.8 672.669 1685.2 673.602 1685.33 674.002C1685.47 674.402 1685.87 675.202 1686 676.002C1686.13 676.669 1686.53 677.602 1686.67 678.002C1686.8 678.402 1687.2 679.202 1687.33 680.002C1687.47 680.669 1687.87 681.602 1688 682.002C1688.13 682.402 1688.53 683.202 1688.67 684.002C1688.8 684.669 1689.2 685.602 1689.33 686.002C1689.47 686.402 1689.73 687.069 1690 687.602C1690.13 688.269 1690.67 689.602 1691.2 690.802C1691.73 692.002 1694.67 700.802 1697.87 710.269L1703.47 727.469L1714.67 723.735C1720.93 721.735 1726.27 720.135 1726.53 720.002C1726.8 720.002 1726.4 719.202 1725.6 718.269C1724.8 717.469 1724.27 716.402 1724.13 716.002C1724.13 715.602 1723.87 714.402 1723.47 713.335C1720.53 705.602 1714.67 687.202 1714.67 685.869C1714.67 685.069 1720.8 682.402 1728.4 680.002C1743.87 675.202 1759.87 667.869 1763.33 664.002C1764.67 662.535 1766.53 661.335 1767.6 661.335C1768.53 661.335 1769.33 660.669 1769.33 660.002C1769.33 659.202 1770.67 657.202 1772.4 655.469C1778.8 648.935 1782.27 638.402 1781.6 628.002C1781.33 624.002 1781.2 619.735 1781.07 618.669C1781.07 617.602 1780.4 615.869 1779.6 614.935C1778.93 614.135 1778.8 613.335 1779.2 613.335C1780.67 613.335 1774.4 602.669 1770.4 598.135C1768.27 595.869 1766.67 593.602 1766.67 592.935C1766.67 592.402 1766.13 592.135 1765.47 592.535C1764.8 592.935 1763.87 592.402 1763.47 591.202C1763.07 590.135 1762.13 589.602 1761.33 590.002C1760.67 590.402 1760 590.269 1760 589.602C1760 587.069 1747.87 584.402 1736.27 584.402C1728.13 584.269 1722.13 585.069 1717.47 586.669ZM1742 606.135C1750.93 608.402 1759.33 622.535 1758.27 633.335C1757.6 638.402 1753.07 646.935 1750 648.535C1748.53 649.335 1747.07 650.402 1746.67 650.802C1745.73 652.135 1736.4 656.002 1728.67 658.269C1725.07 659.335 1721.2 660.935 1720.4 661.602C1719.47 662.402 1718.67 662.535 1718.67 662.002C1718.67 661.469 1717.73 661.735 1716.67 662.669C1715.6 663.602 1714.67 663.869 1714.67 663.335C1714.67 662.802 1713.87 662.935 1713.07 663.602C1709.2 666.402 1707.47 664.402 1703.73 653.335C1701.73 647.069 1699.73 641.202 1699.33 640.269C1699.07 639.335 1698.67 638.135 1698.53 637.602C1698.53 637.069 1697.87 635.869 1697.07 634.935C1696.27 634.135 1696.13 633.335 1696.67 633.335C1697.2 633.335 1696.93 632.402 1696 631.335C1695.07 630.269 1694.8 629.335 1695.33 629.335C1695.87 629.335 1695.6 628.402 1694.67 627.335C1693.73 626.269 1693.47 625.335 1694 625.335C1694.53 625.335 1694.27 624.402 1693.33 623.335C1692.4 622.269 1692.13 621.335 1692.67 621.335C1693.2 621.335 1692.93 620.535 1692.13 619.469C1691.07 618.135 1691.07 617.335 1692.27 616.402C1694.27 614.802 1717.87 606.935 1723.47 605.869C1725.6 605.469 1727.33 605.069 1727.47 604.935C1728.13 604.269 1738.4 605.069 1742 606.135Z" fill="black"/>
<path d="M1620 622.268C1618.93 622.668 1614.13 624.668 1609.33 626.935C1604.53 629.202 1596.93 632.668 1592.4 634.802C1587.73 636.935 1580 640.535 1575.07 642.935C1570 645.202 1563.07 648.402 1559.33 650.002C1548.53 654.802 1537.2 660.535 1536.53 661.602C1536.13 662.135 1537.6 666.135 1539.73 670.268C1544.13 678.802 1550.8 693.202 1555.33 703.335C1556.93 706.935 1560.13 714.002 1562.53 718.935C1564.8 724.002 1568.4 731.735 1570.53 736.268C1572.67 740.935 1576.27 748.535 1578.53 753.335C1580.8 758.135 1582.67 762.402 1582.67 763.068C1582.67 763.602 1584.53 767.335 1586.8 771.335L1590.8 778.535L1597.07 775.468C1600.53 773.735 1606.67 770.802 1610.67 768.935C1614.67 767.202 1622 763.868 1627.07 761.468C1632 759.202 1639.87 755.468 1644.67 753.335C1649.47 751.068 1657.07 747.602 1661.73 745.468C1666.27 743.202 1671.87 740.802 1674.27 740.002C1677.6 738.802 1678.27 737.868 1677.47 736.268C1669.2 718.802 1669.6 719.068 1657.6 725.202C1649.33 729.335 1635.73 735.735 1624 741.068C1620 742.802 1613.87 745.735 1610.4 747.468L1604.13 750.535L1599.47 742.135C1596.8 737.335 1594.67 732.802 1594.67 731.868C1594.67 730.935 1593.2 727.735 1591.33 724.535C1588.27 719.335 1588.13 718.668 1590.13 716.802C1591.2 715.602 1593.07 714.668 1594.13 714.668C1595.33 714.668 1599.6 712.935 1603.73 710.802C1607.87 708.668 1614.67 705.468 1618.67 703.602C1624.27 701.068 1642.53 692.402 1645.07 691.202C1645.33 691.068 1643.47 687.068 1640.93 682.402C1637.73 676.402 1635.87 674.135 1634.53 674.668C1633.47 675.202 1628.8 677.468 1624 679.602C1619.2 681.868 1611.2 685.602 1606 688.002C1600.93 690.402 1594.4 693.602 1591.47 695.068C1585.07 698.268 1578.67 700.135 1579.07 698.668C1579.33 697.735 1576.67 692.002 1568.4 675.468C1565.07 668.802 1565.6 666.802 1570.4 666.668C1571.33 666.668 1575.6 664.935 1579.73 662.802C1583.87 660.668 1591.07 657.068 1595.73 654.668C1600.27 652.402 1604 650.802 1604 651.335C1604 651.735 1607.47 650.268 1611.73 648.135C1615.87 646.002 1621.87 643.202 1624.8 642.002L1630.27 639.735L1628 634.935C1626.67 632.135 1624.8 628.135 1623.73 625.868C1622.67 623.202 1621.33 621.868 1620 622.268Z" fill="black"/>
<path d="M3125.33 639.337C3117.73 641.737 3108.8 649.203 3105.07 656.537C3100.67 664.937 3100.93 678.403 3105.73 688.27C3116.4 710.003 3148 723.87 3183.33 722.27C3192.67 721.87 3201.07 720.67 3206.4 718.937L3214.67 716.27L3240.67 731.47C3428.67 841.337 3592.93 978.403 3730.13 1140.14C3810 1234.27 3892.8 1353.07 3946 1450C3952.27 1461.47 3957.2 1471.2 3956.8 1471.6C3956.53 1472 3951.73 1468.54 3946.4 1463.87C3913.6 1435.6 3858.93 1399.07 3811.87 1374C3745.33 1338.4 3672.4 1310.67 3601.73 1293.87C3585.07 1290 3583.47 1289.87 3580 1293.34C3577.73 1295.6 3577.33 1297.74 3577.33 1306.67C3577.33 1351.74 3607.2 1397.47 3659.07 1432C3706 1463.2 3758.67 1482.27 3855.33 1502.67C3929.47 1518.27 3950.67 1523.2 3983.47 1532.8L3990.8 1534.94L3997.6 1549.07C4055.6 1671.74 4092 1771.87 4123.87 1896.14C4137.07 1947.6 4157.6 2045.2 4157.2 2055.2C4157.2 2057.74 4157.07 2057.74 4155.6 2054.67C4126.67 1989.6 4084.13 1939.87 4026.13 1903.07C4000.67 1886.94 3967.6 1872.27 3940.53 1865.34C3927.47 1861.87 3925.33 1862.14 3921.87 1867.34C3919.73 1870.54 3919.87 1871.47 3923.2 1887.07C3936.27 1946 3965.47 1999.87 4007.33 2042C4030.27 2065.07 4051.6 2080.27 4098.67 2107.34C4140.53 2131.34 4170 2151.87 4171.33 2158C4172 2161.47 4174.13 2185.74 4176.8 2220C4179.6 2257.34 4180.8 2373.87 4178.8 2414.67C4166.27 2669.34 4104.93 2923.47 4001.73 3147.74C3932.27 3299.07 3838.53 3445.34 3730 3572C3668.8 3643.47 3587.87 3724.54 3516.13 3786.27C3355.6 3924.4 3159.07 4039.87 2966.67 4109.07C2800.4 4168.8 2605.47 4209.6 2426.67 4222C2184.13 4238.67 1929.33 4204.54 1696.67 4124.27C1614.27 4095.87 1551.47 4069.07 1474 4029.47C1372.8 3977.74 1296.13 3930 1206 3862.67C1119.6 3798.14 1059.73 3746.4 986 3672.67C894 3580.8 821.734 3493.34 752.667 3390.67C643.734 3228.67 555.867 3038.94 503.333 2852.67C498.267 2835.07 493.867 2820.14 493.333 2819.6C492 2818.14 485.333 2820 485.333 2821.87C485.333 2822.67 488.933 2837.2 493.333 2854C525.733 2976.94 565.6 3084.54 619.867 3195.34C725.067 3410 865.867 3597.2 1048 3764.14C1125.2 3834.94 1226 3909.6 1321.07 3966.54C1485.87 4065.2 1666.53 4140.4 1848.67 4186.4C1967.07 4216.4 2079.2 4233.87 2208.67 4242.8C2242.4 4245.07 2362.4 4245.87 2401.33 4244.14C2656.4 4232.27 2878 4175.6 3119.47 4060.27C3436.8 3908.54 3693.6 3687.2 3884.93 3400.67C3958.8 3289.87 4024.4 3164 4074 3038C4148.4 2848.94 4186.93 2663.87 4194.67 2456.67C4196.53 2408.54 4197.07 2406.54 4214.8 2379.87C4221.33 2370.14 4232.27 2358.14 4264.67 2325.34C4310.8 2278.54 4318.67 2268.54 4332.67 2240.67C4351.73 2202.4 4360 2161.6 4360 2105.07C4360 2081.74 4359.87 2079.87 4357.33 2077.34C4352.27 2072.27 4348.4 2073.87 4333.33 2086.54C4274.13 2136.27 4226.93 2207.87 4202.27 2285.34L4197.73 2299.34L4196.8 2283.34C4193.2 2223.47 4190.67 2195.2 4184.67 2147.07C4166.4 2002.67 4135.47 1863.47 4094.67 1742.67C4087.33 1721.07 4080.4 1700.67 4079.2 1697.34C4076.93 1691.34 4076.93 1690.8 4080.53 1674.94C4085.2 1653.47 4092.13 1632.4 4108.67 1588C4128.8 1533.87 4136.93 1507.2 4141.87 1478.54C4149.2 1436.4 4147.73 1387.2 4137.87 1342.94C4127.87 1298 4100.67 1239.6 4075.2 1208.67C4069.87 1202 4067.2 1201.07 4061.6 1203.47C4056.93 1205.34 4057.07 1204.8 4049.33 1239.07C4034.8 1304 4028.27 1359.34 4027.07 1430C4026.13 1487.87 4028.93 1533.6 4036.67 1583.34C4038.4 1594.27 4039.6 1603.6 4039.33 1603.87C4038.93 1604.14 4037.6 1601.74 4036.27 1598.54C3983.2 1474.8 3903.07 1337.74 3816.93 1223.34C3758.53 1145.74 3706.8 1086.67 3636.53 1017.34C3517.47 899.87 3390.27 804.003 3246.27 722.67L3223.73 710.003L3220.67 702.003C3215.47 688.003 3208.13 677.203 3195.47 664.67C3172.93 642.27 3146.53 632.803 3125.33 639.337ZM4070.67 1246.94C4080.53 1292.27 4081.87 1304.54 4081.87 1353.34C4081.87 1397.87 4080.8 1412.54 4072.53 1474C4061.33 1557.07 4057.87 1597.34 4059.2 1629.2C4059.6 1640.54 4059.73 1649.47 4059.33 1649.07C4058.13 1647.87 4050.8 1611.34 4047.47 1589.34C4033.6 1498.27 4034.13 1410.54 4049.33 1320.67C4055.33 1285.07 4065.73 1240 4068 1240C4068.67 1240 4069.87 1243.2 4070.67 1246.94ZM4088.4 1268.94C4102.93 1304 4108.53 1321.34 4113.87 1347.6C4119.47 1375.34 4120.67 1387.34 4120.53 1418C4120.4 1451.47 4118 1471.74 4110 1503.34C4104.13 1526.54 4087.6 1580.8 4086.93 1578.94C4086.67 1578.14 4087.73 1562.54 4089.2 1544.4C4093.6 1492.94 4094.67 1467.34 4094.67 1412C4094.67 1363.07 4093.6 1337.47 4090.67 1309.34C4089.07 1294.8 4085.47 1269.74 4084.53 1266.27C4083.2 1261.87 4086.27 1264 4088.4 1268.94ZM3612.8 1314.67C3704.27 1333.47 3796 1371.74 3876.4 1424.4C3886.4 1431.07 3894.53 1436.67 3894.27 1436.94C3894 1437.07 3885.2 1433.34 3874.53 1428.54C3850 1417.34 3817.87 1406.67 3773.33 1394.8C3690.53 1372.94 3660.4 1361.34 3624.4 1337.2C3613.73 1329.87 3596 1315.07 3596 1313.2C3596 1311.47 3598.13 1311.6 3612.8 1314.67ZM3634.53 1354.8C3661.87 1371.07 3682.8 1380.14 3754.67 1406.67C3842.13 1438.94 3857.87 1446.4 3942 1494.27C3961.87 1505.6 3978.53 1515.34 3979.2 1516.14C3981.47 1518.27 3978 1517.47 3970.4 1514.14C3946.27 1503.47 3906.13 1490.94 3845.33 1475.34C3765.2 1454.67 3738.53 1445.87 3704.67 1429.34C3656.8 1406 3624.67 1378.4 3608 1346.4C3605.07 1340.8 3602.67 1335.6 3602.67 1334.8C3602.67 1334 3607.33 1336.67 3613.07 1340.8C3618.67 1344.94 3628.4 1351.2 3634.53 1354.8ZM3980.4 1896.14C4008.13 1906.94 4039.07 1925.34 4063.2 1945.47C4105.87 1981.07 4143.07 2037.47 4157.2 2088C4160.53 2100 4165.6 2124.27 4164.93 2124.94C4164.67 2125.2 4163.07 2121.74 4161.47 2117.2C4156.93 2105.07 4145.2 2082.27 4136.27 2068.67C4108.53 2026.14 4060.8 1976.8 3984 1911.47C3971.2 1900.54 3960.13 1890.94 3959.33 1890.27C3956.93 1888.14 3966.8 1890.8 3980.4 1896.14ZM3963.2 1906.27C3992.4 1929.87 4029.73 1968.14 4055.47 2001.2C4066.93 2016 4124 2095.07 4123.47 2095.6C4122.67 2096.4 4060 2053.6 4050 2045.6C4004.27 2008.67 3971.2 1963.2 3950.53 1908.27C3947.6 1900.8 3945.33 1894.4 3945.33 1894C3945.33 1892.27 3948.27 1894.27 3963.2 1906.27ZM4325.6 2130.14C4307.87 2158.54 4301.2 2168.8 4269.07 2217.74C4233.87 2271.2 4215.73 2302.8 4204.67 2329.34C4199.73 2341.34 4198.67 2341.87 4200.8 2331.07C4210.8 2282.4 4231.2 2233.2 4258 2193.34C4272.8 2171.34 4284.13 2157.2 4302 2138.8C4316.13 2124.14 4339.73 2103.34 4340.8 2104.4C4341.2 2104.67 4334.27 2116.27 4325.6 2130.14ZM4336.8 2139.6C4334.27 2163.87 4322.53 2205.74 4312.67 2225.34C4305.47 2239.74 4295.07 2255.2 4284.4 2267.6C4272.93 2280.8 4243.6 2312 4243.07 2311.47C4242.4 2310.8 4284.53 2222.4 4295.33 2201.87C4309.07 2175.6 4335.47 2130.8 4337.2 2130.67C4337.47 2130.67 4337.33 2134.67 4336.8 2139.6Z" fill="black"/>
<path d="M1464.27 695.47C1438.8 708.403 1417.47 719.47 1416.8 720.136C1416.13 720.67 1417.47 725.203 1419.87 730.27C1422.4 735.603 1424.53 738.67 1425.07 737.736C1426.4 735.603 1455.87 721.47 1459.87 721.07C1462.8 720.67 1464.53 723.736 1481.2 756.67C1491.2 776.403 1501.87 798.136 1504.93 804.936L1510.4 817.203L1520.8 811.736C1526.67 808.67 1531.47 806.136 1531.6 806.003C1531.87 805.87 1524.67 791.203 1515.6 773.203C1506.67 755.336 1496 733.47 1491.87 724.536L1484.4 708.536L1503.33 698.67L1522.13 688.803L1517.6 680.403C1515.2 675.736 1512.53 672.003 1511.87 672.003C1511.07 672.003 1489.6 682.536 1464.27 695.47Z" fill="black"/>
<path d="M1375.73 745.867C1372.93 746.8 1370.67 747.467 1370.67 747.067C1370.67 746.8 1369.33 747.467 1367.73 748.534C1366.13 749.734 1364 750.667 1362.93 750.667C1359.87 750.667 1343.47 762.267 1339.33 767.467C1337.2 770.134 1334.4 773.334 1333.33 774.534C1329.87 778.267 1323.33 792.8 1321.73 800C1321.07 803.2 1321.07 824.4 1321.73 827.334C1323.6 834.667 1330 848.4 1332.8 850.667C1333.73 851.6 1334.67 852.8 1334.67 853.334C1334.67 853.867 1337.87 857.467 1341.73 861.334C1348.53 868.134 1362.93 876.4 1371.47 878.267C1378.4 879.867 1402.67 879.067 1405.07 877.2C1405.2 877.067 1405.73 876.934 1406.4 876.667C1420.4 872.8 1435.73 862 1444.8 849.734C1446.93 846.934 1449.47 843.867 1450.4 842.934C1451.2 842 1452 840.534 1452 839.867C1452 839.2 1452 838.4 1452 838C1452 837.6 1453.2 834.8 1454.53 831.734C1456.93 826 1456.67 822.267 1453.73 821.734C1452.93 821.6 1450.53 821.067 1448.4 820.667C1440.67 819.334 1438.67 818.8 1437.33 818C1436.53 817.6 1435.87 818.134 1435.87 819.2C1435.6 822.4 1434.67 824.934 1431.07 833.067C1423.73 849.734 1393.73 862.667 1377.33 856.4C1368.67 852.934 1365.33 851.334 1365.33 850.4C1365.33 849.867 1364.53 849.334 1363.47 849.334C1361.47 849.334 1353.33 840.8 1353.33 838.667C1353.33 838 1352.53 836.667 1351.6 835.734C1346.13 830.134 1342.27 811.734 1344.53 801.867C1346.4 793.2 1360.53 773.334 1364.8 773.334C1365.87 773.334 1366.67 772.8 1366.67 772.134C1366.67 769.734 1382.53 765.2 1390.4 765.2C1393.2 765.2 1397.2 765.467 1399.6 765.867C1403.73 766.4 1403.87 766.267 1405.33 760.267C1407.6 750 1407.87 749.334 1408.53 748.134C1410.8 744.4 1384.53 742.534 1375.73 745.867Z" fill="black"/>
<path d="M1234.4 836.934C1233.07 837.334 1232 838.134 1232 838.8C1232 839.467 1231.07 840 1230 840C1228.93 840 1228 840.534 1228 841.067C1228 841.6 1226 843.2 1223.73 844.667C1221.33 846 1218.67 847.867 1217.87 848.667C1216.4 850 1216.4 850.667 1217.87 858C1218.27 860.134 1218.93 863.467 1219.33 865.334C1219.73 867.2 1220.27 870.134 1220.67 872C1221.6 876.267 1222.8 882.4 1223.47 886.667C1223.87 888.534 1224.4 891.467 1224.8 893.334C1225.2 895.2 1225.73 897.867 1226 899.334C1226.67 903.334 1227.87 909.6 1228.67 913.334C1229.07 915.2 1229.6 918.134 1230 920C1230.4 921.867 1230.93 924.8 1231.33 926.667C1231.73 928.534 1232.27 931.467 1232.67 933.334C1233.07 935.2 1233.6 938.134 1234 940C1234.4 941.867 1234.93 944.8 1235.33 946.667C1235.73 948.534 1236.4 951.734 1236.8 954C1237.2 956.134 1237.87 959.2 1238.13 960.667C1238.4 962.134 1238.93 965.067 1239.33 967.334C1239.73 969.467 1240.4 972.534 1240.67 974C1240.93 975.467 1241.47 978.8 1242 981.334C1242.53 983.867 1243.07 986.8 1243.07 987.6C1243.2 990.134 1243.73 989.867 1250 984.267C1250.93 983.467 1252.13 982.667 1252.67 982.667C1254.93 982.667 1264.13 973.334 1263.2 971.867C1262.8 971.2 1262.27 969.334 1261.87 967.6C1261.33 964.534 1260.53 960.667 1259.33 955.6C1258.93 954 1258.27 950.134 1257.87 947.067C1257.2 942.4 1257.47 941.467 1259.87 940.667C1261.47 940.267 1262.67 939.2 1262.67 938.534C1262.67 937.867 1263.33 937.334 1264.13 937.334C1264.93 937.334 1266.4 936.534 1267.33 935.6C1271.33 932.134 1273.2 930.667 1274 930.667C1274.4 930.667 1276.4 929.2 1278.4 927.334C1280.4 925.467 1282.67 924 1283.6 924C1284.53 924 1285.33 923.467 1285.33 922.934C1285.33 922.267 1287.47 920.667 1290 919.2C1292.53 917.867 1294.67 916.267 1294.67 915.734C1294.67 915.067 1295.33 914.667 1296.13 914.667C1296.93 914.667 1298.4 913.867 1299.33 912.934C1303.73 909.067 1305.33 908 1306.67 908C1307.33 908 1308 907.334 1308 906.667C1308 905.867 1308.93 905.334 1310 905.334C1311.07 905.334 1312 905.867 1312 906.534C1312 907.2 1313.47 908.134 1315.33 908.534C1317.2 909.067 1318.67 910 1318.67 910.667C1318.67 911.467 1319.47 912 1320.53 912C1321.6 912 1323.33 912.8 1324.27 913.6C1330.13 918.934 1337.47 922 1340 920C1341.07 919.2 1343.07 918.267 1344.4 917.867C1345.6 917.334 1346.67 916.534 1346.67 916C1346.67 915.467 1348.8 914 1351.33 912.534C1356.93 909.6 1356.93 906.8 1351.33 904.134C1349.07 903.067 1347.07 901.867 1346.67 901.467C1346.27 900.934 1344.53 899.867 1342.67 898.934C1340.8 898 1337.6 896.134 1335.33 894.667C1333.2 893.2 1329.73 891.334 1327.73 890.534C1325.6 889.734 1324 888.534 1324 888C1324 887.467 1322.4 886.267 1320.4 885.467C1315.6 883.467 1308.8 879.867 1308 878.8C1307.6 878.267 1305.87 877.2 1304 876.267C1302.13 875.334 1298.93 873.467 1296.67 872C1294.53 870.534 1291.07 868.667 1289.07 867.867C1286.93 867.067 1285.33 865.867 1285.33 865.334C1285.33 864.8 1283.73 863.6 1281.73 862.8C1277.73 861.2 1272.53 858.267 1269.33 856C1266.13 853.734 1260.93 850.8 1257.07 849.2C1254.93 848.4 1253.33 847.2 1253.33 846.534C1253.33 845.867 1252.53 845.334 1251.6 845.334C1250.53 845.334 1248.4 844.134 1246.67 842.667C1244.93 841.2 1242.93 840 1242.27 840C1241.47 840 1239.87 839.2 1238.8 838.267C1237.6 837.2 1235.6 836.667 1234.4 836.934ZM1246.67 866.4C1247.47 867.467 1251.47 870 1255.33 872C1256.8 872.8 1259.87 874.534 1262 876C1264.27 877.467 1267.07 879.067 1268.4 879.467C1269.6 880 1270.67 880.8 1270.67 881.467C1270.67 882.134 1271.47 882.667 1272.53 882.667C1273.6 882.667 1275.33 883.467 1276.27 884.4C1277.2 885.334 1278.93 886.534 1280 887.067C1289.6 891.6 1293.2 896.4 1288.13 898C1286.53 898.4 1285.33 899.467 1285.33 900.134C1285.33 900.8 1284.67 901.334 1284 901.334C1283.2 901.334 1280.93 902.8 1278.93 904.667C1276.93 906.534 1274.67 908 1273.73 908C1272.8 908 1272 908.534 1272 909.067C1272 909.734 1269.87 911.334 1267.33 912.8C1264.8 914.134 1262.67 915.6 1262.67 916C1262.67 917.334 1252 922.934 1251.87 921.734C1251.87 921.2 1251.6 919.734 1251.33 918.667C1251.07 917.6 1250.53 914.8 1250.13 912.667C1249.73 910.4 1249.07 907.334 1248.67 905.6C1248.27 904 1247.73 901.334 1247.33 899.6C1246.93 898 1246.4 895.2 1246 893.334C1245.6 891.467 1245.07 888.534 1244.67 886.667C1244.27 884.8 1243.6 882.134 1243.33 880.667C1242.93 879.2 1242.4 876.534 1242 874.667C1241.47 872.8 1240.93 869.867 1240.53 868.134C1240.13 866.267 1239.6 864.4 1239.2 863.734C1238.4 862.534 1245.6 865.067 1246.67 866.4Z" fill="black"/>
<path d="M1135.33 912.669C1131.6 916.002 1128.8 919.336 1128.93 919.869C1129.07 920.536 1129.6 922.802 1129.87 924.936C1131.2 932.536 1132 936.802 1132.67 940.002C1133.07 941.869 1133.73 945.069 1134 947.336C1134.4 949.469 1134.93 952.802 1135.33 954.669C1135.73 956.536 1136.4 959.736 1136.67 962.002C1137.07 964.136 1137.6 967.469 1138 969.336C1138.4 971.202 1138.93 974.402 1139.33 976.669C1139.6 978.802 1140.27 982.136 1140.67 984.002C1141.07 985.869 1141.6 988.802 1142 990.669C1142.27 992.536 1142.93 995.736 1143.2 998.002C1143.6 1000.14 1144.27 1003.47 1144.67 1005.34C1146.8 1014.67 1146.67 1016 1143.6 1015.47C1142 1015.07 1140.53 1014.8 1140.4 1014.54C1140.13 1014.4 1139.47 1014.14 1138.67 1014C1138 1013.87 1137.07 1013.47 1136.67 1013.34C1136.27 1013.2 1135.47 1012.8 1134.67 1012.67C1134 1012.54 1133.07 1012.14 1132.67 1012C1132.27 1011.87 1131.6 1011.6 1131.07 1011.47C1130.4 1011.34 1129.2 1010.8 1128.4 1010.27C1127.47 1009.6 1126.67 1009.47 1126.67 1009.87C1126.67 1010.27 1116.27 1006.94 1103.73 1002.54C1091.07 998.136 1080.53 994.536 1080.4 994.669C1080.13 994.669 1079.73 994.536 1079.33 994.536C1078.93 994.402 1078.13 994.136 1077.33 994.002C1076.67 993.869 1075.73 993.469 1075.33 993.336C1074.93 993.202 1074.13 992.802 1073.33 992.669C1072.67 992.536 1071.73 992.136 1071.33 992.002C1070.93 991.869 1070.13 991.469 1069.33 991.336C1068.67 991.202 1067.73 990.802 1067.33 990.669C1066.93 990.536 1066.13 990.136 1065.33 990.002C1064.67 989.869 1063.87 989.602 1063.73 989.336C1063.2 989.069 1060 988.269 1054.67 987.336C1050.27 986.536 1049.33 986.936 1043.47 992.536C1036.4 999.202 1036.4 998.936 1044 1006.67C1045.87 1008.54 1049.73 1012.94 1052.67 1016.4C1055.6 1020 1059.47 1024.54 1061.33 1026.67C1063.2 1028.67 1067.07 1033.2 1070 1036.54C1072.93 1040 1076.8 1044.54 1078.67 1046.54C1080.53 1048.54 1084.4 1053.07 1087.33 1056.54C1090.27 1060 1094.53 1064.8 1096.67 1067.34C1098.93 1069.74 1102.93 1074.27 1105.73 1077.47C1108.53 1080.67 1112.8 1085.6 1115.33 1088.54C1117.87 1091.34 1120 1094.27 1120 1094.94C1120 1096.8 1126.13 1092.67 1131.6 1087.2C1134.13 1084.67 1136.67 1082.67 1137.47 1082.67C1138.93 1082.67 1133.2 1074.54 1128 1069.34C1126.13 1067.47 1122.27 1063.07 1119.33 1059.6C1116.4 1056 1112.53 1051.47 1110.67 1049.34C1108.8 1047.34 1104.93 1042.8 1102 1039.47C1095.87 1032.27 1091.6 1027.34 1086.27 1021.47C1081.87 1016.67 1081.87 1016.67 1089.2 1019.34C1092.13 1020.4 1094.67 1020.94 1094.67 1020.4C1094.67 1020 1095.6 1020.4 1096.67 1021.34C1097.73 1022.27 1098.67 1022.54 1098.67 1022C1098.67 1021.47 1099.6 1021.74 1100.67 1022.67C1101.73 1023.6 1102.67 1024 1102.67 1023.47C1102.67 1023.07 1107.47 1024.54 1113.33 1026.67C1119.2 1028.8 1124 1030.27 1124 1029.87C1124 1029.34 1124.93 1029.74 1126 1030.67C1127.07 1031.6 1128 1031.87 1128 1031.34C1128 1030.8 1128.93 1031.07 1130 1032C1131.07 1032.94 1132 1033.34 1132 1032.8C1132 1032.4 1136.8 1033.87 1142.67 1036C1148.53 1038.14 1153.33 1039.6 1153.33 1039.2C1153.33 1038.67 1154.27 1039.07 1155.33 1040C1156.4 1040.94 1157.33 1041.2 1157.33 1040.67C1157.33 1040.14 1158.13 1040.27 1159.07 1041.07C1161.87 1043.34 1169.47 1035.87 1168.53 1031.74C1168.27 1030.14 1167.73 1027.2 1167.33 1025.34C1167.07 1023.47 1166.53 1020.14 1166.13 1018C1164.13 1006.4 1163.73 1004.4 1163.33 1001.34C1162.93 999.469 1162.4 996.536 1162 994.669C1161.6 992.802 1161.07 989.869 1160.67 988.002C1160.4 986.136 1159.87 982.669 1159.47 980.269C1159.07 978.002 1158.27 974.002 1157.87 971.602C1157.47 969.336 1156.93 965.869 1156.67 964.002C1156.27 962.136 1155.87 959.336 1155.47 957.602C1154.93 955.069 1155.2 954.802 1157.2 956.002C1158.53 956.669 1160.67 958.936 1162 960.936C1163.33 962.936 1166 966.269 1167.87 968.136C1169.73 970.002 1173.73 974.402 1176.67 977.869C1179.6 981.336 1183.87 986.136 1186 988.536C1188.27 991.069 1192.4 995.736 1195.33 999.202C1198.27 1002.67 1203.07 1008 1206 1011.34L1211.47 1017.2L1215.47 1014C1217.73 1012.27 1221.33 1009.07 1223.73 1006.94C1227.73 1003.2 1227.73 1003.07 1225.6 999.869C1224.4 998.002 1221.87 995.069 1220 993.202C1218.13 991.202 1214.27 986.802 1211.33 983.469C1208.4 980.002 1204.27 975.202 1202 972.802C1199.87 970.269 1195.6 965.469 1192.67 962.136C1189.73 958.669 1185.6 953.869 1183.33 951.469C1181.2 948.936 1176.93 944.136 1174 940.802C1171.07 937.336 1166.93 932.536 1164.67 930.136C1162.53 927.602 1158.27 922.802 1155.33 919.336C1148.67 911.469 1143.87 906.669 1142.8 906.669C1142.27 906.669 1138.93 909.336 1135.33 912.669Z" fill="black"/>
<path d="M2279.33 930.27C2064.67 940.536 1872.93 990.27 1687.33 1084C1361.2 1248.67 1108.4 1531.2 981.6 1872.67C933.2 2003.2 906 2130.27 894.4 2280C891.734 2314.8 892.134 2446.4 895.067 2482.67C911.067 2680.67 960 2857.34 1046.13 3028C1131.33 3197.2 1251.6 3350.54 1396 3474.8C1618.67 3666 1893.07 3784.67 2185.33 3815.87C2240.13 3821.74 2270 3823.2 2338 3823.2C2401.73 3823.2 2422.4 3822.4 2472 3818C2737.73 3793.87 2992 3696 3206 3535.34C3266 3490.27 3305.2 3456.14 3360.67 3400.67C3412 3349.47 3445.6 3311.6 3483.87 3262C3619.73 3086 3712.4 2884.67 3756.53 2669.47C3797.47 2470.14 3796.13 2264.54 3752.67 2065.2C3682 1741.47 3499.33 1449.6 3236.67 1241.07C3118.53 1147.47 2980.67 1070 2839.47 1018C2700 966.803 2559.2 938.403 2406.67 930.67C2383.6 929.47 2300.4 929.203 2279.33 930.27ZM2374.4 1637.2C2395.2 1643.6 2409.87 1659.34 2417.07 1682.8C2418.93 1689.07 2419.2 1701.6 2419.6 1785.6L2420.13 1881.34H2398.67H2377.33V1790.94C2377.33 1712 2377.07 1699.6 2375.2 1693.2C2371.07 1678.94 2363.73 1673.34 2349.6 1673.34C2336.27 1673.34 2328.53 1681.47 2325.33 1698.8C2324.4 1703.6 2324.13 1793.34 2324.27 1964.8C2324.67 2217.07 2324.67 2223.47 2327.2 2229.34C2332.67 2241.87 2339.33 2246.67 2351.07 2246.67C2363.47 2246.54 2372.93 2238.4 2376 2225.07C2376.8 2221.6 2377.33 2180.4 2377.33 2118.94V2018.67H2398.67H2420V2119.2C2420 2230.94 2419.87 2232.4 2411.33 2250.4C2400.4 2273.6 2378.53 2286.54 2350.67 2286.67C2316.8 2286.67 2293.07 2267.47 2284.53 2233.34C2282.13 2223.74 2282 2212.67 2282 1960C2282 1710.14 2282.13 1696.14 2284.4 1686.27C2292.8 1650.67 2317.87 1632.14 2354.8 1634C2361.07 1634.4 2369.87 1635.74 2374.4 1637.2ZM1721.6 1812.27L1722 1984.67L1725.07 1990.54C1731.2 2002.14 1739.47 2005.2 1758 2002.8C1764.27 2001.87 1770.27 2000.94 1771.33 2000.54C1773.07 1999.87 1773.33 1977.2 1773.33 1819.87V1639.87L1794.4 1640.27L1815.33 1640.67L1815.73 1959.6L1816 2278.67H1794.67H1773.33V2159.2V2039.6L1768.4 2040.54C1756.53 2042.54 1733.33 2043.07 1725.07 2041.47C1702.67 2036.94 1687.73 2022.67 1680.27 1998.54C1678.27 1992 1678.13 1974.4 1677.73 1817.47C1677.47 1721.74 1677.6 1642.67 1677.87 1641.74C1678.4 1640.4 1683.47 1640 1700 1640H1721.33L1721.6 1812.27ZM1931.2 1645.6C1931.6 1648.8 1937.07 1696 1943.2 1750.67C1952.67 1834.8 1954.93 1858.4 1957.47 1904.54C1959.2 1934.4 1960.67 1958.4 1960.93 1957.87C1961.07 1957.2 1962.8 1931.47 1964.67 1900.8C1967.87 1848.8 1968.93 1838 1980.67 1747.47C1987.6 1693.87 1993.6 1647.74 1994.13 1644.94L1994.93 1640H2017.47H2040L2039.33 1643.6C2038.93 1645.74 2021.6 1776 2000.67 1933.34C1979.73 2090.67 1961.47 2224.27 1960 2230.4C1955.07 2251.07 1945.33 2268.27 1933.87 2276C1922 2284.27 1899.6 2286.27 1882 2280.8C1869.47 2276.94 1869.87 2278 1873.33 2255.2C1874.93 2244.27 1876.4 2235.2 1876.53 2235.07C1876.67 2234.94 1880.67 2236 1885.33 2237.47C1903.33 2243.2 1913.47 2238.27 1918.8 2221.34C1920.53 2215.74 1924.27 2189.34 1929.33 2146.8L1937.07 2080.94L1912 1865.47C1898.13 1746.94 1886.4 1647.74 1886 1644.94L1885.33 1640H1907.87H1930.4L1931.2 1645.6ZM2175.87 1643.07C2193.47 1648.27 2206.4 1658.54 2213.47 1673.47C2220.8 1688.4 2220.67 1687.2 2220.67 1798V1900.67L2217.6 1908.54C2213.47 1919.47 2205.33 1929.87 2197.07 1934.54L2190.27 1938.4L2197.07 1941.34C2205.47 1944.94 2215.07 1954.94 2219.33 1964.4C2225.2 1977.34 2225.47 1985.34 2225.07 2110.67C2224.67 2228.27 2224.67 2228.67 2221.73 2237.34C2214.4 2258.67 2201.73 2270.67 2180.67 2276C2171.33 2278.4 2165.87 2278.67 2129.73 2278.67H2089.33V1959.2V1639.74L2129.07 1640.4C2159.47 1640.8 2170.27 1641.47 2175.87 1643.07ZM2598.67 1660.67V1681.34H2572.67H2546.67V1980V2278.67H2525.33H2504V1980V1681.34H2478H2452V1661.6C2452 1650.67 2452.4 1641.34 2452.93 1640.94C2453.33 1640.4 2486.4 1640 2526.27 1640H2598.67V1660.67ZM2736.4 1643.87C2758.13 1650.94 2770.93 1664.54 2776.53 1686.4C2778.53 1693.6 2778.67 1706.94 2778.4 1799.6L2778 1904.67L2773.87 1913.34C2769.07 1923.34 2760.93 1932.14 2753.33 1935.47L2748 1937.87L2756.13 1941.87C2766.13 1946.8 2774.53 1956 2778.4 1966C2783.73 1979.87 2784.13 1992.14 2783.73 2112.67C2783.2 2236.94 2783.33 2233.47 2775.87 2248.27C2771.6 2256.54 2760.93 2267.07 2752.8 2271.07C2739.07 2277.87 2732.13 2278.67 2688.4 2278.67H2648V1959.2V1639.74L2687.73 1640.27C2724 1640.94 2728.13 1641.2 2736.4 1643.87ZM2940 1641.6C2940 1644.54 2991.87 2265.87 2992.67 2272.27L2993.47 2278.67H2971.33C2951.33 2278.67 2949.33 2278.4 2949.33 2276.27C2949.33 2275.07 2946.93 2245.47 2944 2210.67C2941.07 2175.87 2938.67 2146.94 2938.67 2146.27C2938.67 2145.74 2925.6 2145.34 2909.47 2145.34H2880.27L2879.6 2150.94C2879.07 2154.14 2876.53 2184.14 2873.73 2217.6L2868.8 2278.67H2847.73C2831.73 2278.67 2826.67 2278.27 2826.67 2276.94C2826.53 2273.74 2878.8 1645.87 2879.47 1642.94L2880 1640H2910C2932.4 1640 2940 1640.4 2940 1641.6ZM2120 3026.67H2129.33V3073.34V3120H2110.67H2092V3093.34V3066.67H2032H1972V2748V2429.34H1994H2016V2728V3026.67H2042H2068V2728V2429.47L2089.07 2429.07L2110 2428.67L2110.4 2727.6L2110.67 3026.67H2120ZM2272 2432.4C2292.4 2440.4 2304.67 2453.87 2309.87 2474.4C2311.87 2481.6 2312 2494.94 2311.73 2587.6L2311.33 2692.67L2308 2700.4C2304.13 2709.47 2293.87 2720.67 2286.4 2724L2281.2 2726.27L2285.6 2728.14C2298.53 2733.34 2308.27 2743.34 2312.67 2755.87C2317.07 2768.4 2317.47 2784.54 2317.07 2900.67C2316.53 3026.4 2316.8 3022.14 2308.4 3037.47C2301.07 3050.94 2285.87 3061.87 2269.6 3065.2C2265.33 3066.14 2246.4 3066.67 2222 3066.67H2181.33V2747.6V2428.67L2223.6 2429.34C2259.47 2430 2266.93 2430.54 2272 2432.4ZM2945.2 2535.47C2952.67 2593.74 2959.87 2653.2 2961.07 2667.74L2963.2 2694L2965.6 2666.8C2966.93 2651.87 2974.27 2592.54 2982 2534.8C2989.73 2477.2 2996 2429.74 2996 2429.34C2996 2428.94 3005.87 2428.67 3018 2428.67C3036.67 2428.67 3040 2428.94 3040 2430.67C3039.87 2431.74 3029.6 2499.6 3016.93 2581.47L2994 2730.27L3018.93 2892.8C3032.53 2982.27 3044.13 3057.87 3044.67 3060.94L3045.47 3066.67H3023.47H3001.6L3000.8 3062.94C2998.13 3049.34 2967.47 2817.34 2965.6 2796.27L2963.33 2770L2961.07 2796C2959.73 2810.27 2951.6 2876.4 2942.67 2942.8C2933.87 3009.2 2926.67 3064.14 2926.67 3065.07C2926.67 3066.27 2920.67 3066.67 2904 3066.67C2891.6 3066.67 2881.33 3066.4 2881.33 3066.14C2881.33 3065.74 2892.67 2991.2 2906.67 2900.4C2920.53 2809.6 2932 2733.47 2932 2731.2C2932 2728.94 2921.87 2660.67 2909.33 2579.47C2896.93 2498.27 2886.67 2431.2 2886.67 2430.27C2886.67 2429.07 2892.27 2428.8 2909.07 2429.07L2931.47 2429.47L2945.2 2535.47ZM1716.27 2430.8C1733.07 2434.4 1749.07 2446.4 1756.53 2460.94C1763.87 2475.6 1764.13 2479.47 1763.73 2589.34C1763.33 2682.94 1763.2 2690.54 1760.93 2696.67C1756.13 2709.6 1746.8 2720.27 1736 2724.8C1732.8 2726.14 1732.93 2726.27 1740 2729.6C1748.4 2733.6 1757.73 2742.27 1761.6 2749.74C1767.87 2762 1768 2765.07 1768 2892C1768 3025.2 1768.13 3022.8 1759.07 3038.54C1752.67 3049.6 1741.87 3058.54 1729.6 3062.8C1721.07 3065.87 1718.93 3066 1676.4 3066.4L1632 3066.8V2748.14V2429.34H1670.67C1694.13 2429.34 1712 2429.87 1716.27 2430.8ZM2488 2448.67V2468H2454H2420V2594V2720H2448.67H2477.33V2739.34V2758.67H2448.67H2420V2892.67V3026.67H2454H2488V3046.67V3066.67H2432.67H2377.33V2748V2429.34H2432.67H2488V2448.67ZM2669.33 2449.34V2469.34H2643.33H2617.33V2768V3066.67H2596H2574.67V2768V2469.34H2548.67H2522.67V2449.34V2429.34H2596H2669.33V2449.34ZM2820.27 2744.67C2834.67 2917.74 2846.53 3060.94 2846.53 3062.94L2846.67 3066.67H2825.33C2813.6 3066.67 2804 3066.54 2803.87 3066.27C2803.87 3066.14 2801.33 3036.27 2798.27 3000L2792.67 2934L2763.2 2933.6L2733.87 2933.34L2728.93 2994.27C2726.13 3027.87 2723.6 3057.87 2723.07 3060.94L2722.4 3066.67H2701.2H2679.87L2680.67 3060.27C2681.33 3054.8 2733.33 2432.4 2733.33 2430.14C2733.33 2429.74 2746.93 2429.47 2763.6 2429.6L2794 2430L2820.27 2744.67Z" fill="black"/>
<path d="M2132 1801.47V1922.93L2147.2 1922.4C2162 1922 2162.53 1921.87 2167.6 1917.87C2170.67 1915.33 2173.73 1911.07 2175.33 1907.2C2177.87 1900.8 2178 1897.6 2178 1800C2178 1692.4 2178.13 1694.4 2171.47 1686.8C2166.8 1681.47 2161.2 1680 2146 1680H2132V1801.47Z" fill="black"/>
<path d="M2132 2100.53V2238.67H2147.2C2157.47 2238.67 2163.87 2238 2166.93 2236.67C2173.87 2233.87 2179.47 2226.67 2181.33 2218.4C2182.4 2213.33 2182.67 2180 2182.4 2098L2182 1984.67L2178.53 1978C2176.13 1973.33 2173.33 1970.13 2168.8 1967.47C2162.93 1963.87 2161.2 1963.47 2147.2 1962.93L2132 1962.27V2100.53Z" fill="black"/>
<path d="M2690.67 1801.47V1922.93L2705.73 1922.53C2717.2 1922.13 2721.47 1921.47 2724 1919.73C2729.07 1916.13 2734.4 1907.07 2735.6 1900.27C2736.13 1896.8 2736.67 1850.13 2736.67 1796.67V1699.2L2733.2 1692.67C2728 1682.4 2722.8 1680 2705.07 1680H2690.67V1801.47Z" fill="black"/>
<path d="M2690.67 2100.53V2238.67H2705.73C2718.67 2238.67 2721.6 2238.27 2726.67 2235.6C2733.87 2232.13 2738 2226.27 2739.87 2217.2C2741.87 2207.87 2741.87 1999.47 2739.87 1988.67C2736.27 1969.33 2729.07 1963.87 2705.73 1962.93L2690.67 1962.27V2100.53Z" fill="black"/>
<path d="M2909.47 1750.67C2909.47 1753.2 2908.67 1772.67 2907.87 1794C2906.93 1819.6 2902.67 1877.87 2895.2 1966.4C2889.07 2040 2884 2101.73 2884 2103.47V2106.67H2910.13H2936.27L2935.47 2100.27C2932.67 2077.87 2913.07 1821.07 2911.6 1787.33C2910.53 1764.53 2909.6 1748.13 2909.47 1750.67Z" fill="black"/>
<path d="M2224 2589.33V2710.67H2237.33C2253.73 2710.67 2259.47 2708.27 2264.67 2699.6C2270.4 2689.73 2270.8 2680 2270.4 2580L2270 2487.33L2266.67 2480.67C2261.73 2470.67 2255.47 2468 2237.73 2468H2224V2589.33Z" fill="black"/>
<path d="M2224 2888.53V3026.67H2239.33C2255.87 3026.67 2261.47 3025.33 2266.53 3019.87C2274.27 3011.6 2274 3017.2 2274.4 2896.67C2274.93 2777.47 2274.67 2772.67 2268.27 2762.8C2262.93 2754.53 2256.13 2751.87 2238.53 2750.93L2224 2750.27V2888.53Z" fill="black"/>
<path d="M1676 2589.33V2710.67H1688.67C1696.53 2710.67 1703.07 2710 1705.87 2708.8C1712 2706.27 1718 2698.4 1719.73 2690.53C1720.93 2685.73 1721.33 2655.87 1721.33 2586.67C1721.33 2482 1721.33 2482.53 1714.27 2474.8C1709.33 2469.47 1703.87 2468 1689.33 2468H1676V2589.33Z" fill="black"/>
<path d="M1676 2888.53V3026.67H1691.07C1709.33 3026.67 1715.2 3024.4 1720.93 3015.87L1724.67 3010.13V2890.67V2771.07L1720.67 2764.53C1714.4 2754.53 1708.4 2751.87 1690.53 2750.93L1676 2750.27V2888.53Z" fill="black"/>
<path d="M2761.73 2582.4C2760.53 2617.07 2757.73 2656.13 2749.47 2754C2743.6 2823.6 2738.4 2883.87 2738 2887.6L2737.2 2894.67H2763.2H2789.33V2891.6C2789.33 2889.87 2784.53 2829.47 2778.67 2757.33C2772.8 2685.07 2767.07 2606.27 2766 2582.13C2764.93 2558 2763.73 2538 2763.6 2537.87C2763.33 2537.6 2762.53 2557.6 2761.73 2582.4Z" fill="black"/>
<path d="M960 1074.4C960 1074.93 957.733 1078 955.067 1081.07C952.267 1084.13 947.6 1089.33 944.667 1092.8C934.667 1104.27 930 1109.6 926.4 1113.6C924.267 1115.73 922.667 1117.73 922.667 1118C922.667 1118.27 920.267 1122.27 917.333 1127.07C911.467 1136.93 910.533 1140 910.133 1151.33C909.6 1162.53 913.2 1172.8 920 1179.73C933.467 1193.47 941.467 1197.47 955.333 1197.6C962.667 1197.73 968.4 1196.8 970.933 1195.07C975.067 1192.53 976.933 1193.47 978.133 1198.67C978.4 1200.13 978.933 1202.53 979.333 1204C979.733 1205.47 980.267 1207.87 980.667 1209.33C981.067 1210.8 981.6 1213.07 982 1214.27C982.4 1215.6 983.867 1221.33 985.2 1227.2C986.667 1232.93 988.267 1238 988.8 1238.53C989.2 1238.93 990.667 1237.87 991.867 1236C993.067 1234.13 995.2 1231.33 996.8 1229.87C1003.33 1223.2 1005.33 1219.73 1004 1217.33C1003.33 1216.13 1002.53 1213.6 1002.13 1211.87C1000.67 1204.53 1000.13 1202.67 999.467 1201.6C999.067 1200.93 998.533 1199.07 998.133 1197.2C996.667 1189.87 996.133 1188 995.467 1186.93C993.467 1183.73 993.6 1178.27 995.733 1176C996.933 1174.67 1000.4 1170.67 1003.33 1167.33C1006.27 1163.87 1010.27 1159.2 1012.27 1157.07L1015.87 1153.07L1020.27 1156.13C1022.67 1157.73 1026.53 1160.8 1028.67 1162.93C1042.53 1175.73 1045.33 1177.73 1045.33 1174.8C1045.33 1174.13 1048 1170.8 1051.33 1167.2C1054.67 1163.73 1057.33 1160.27 1057.33 1159.33C1057.33 1157.6 1054.8 1154.93 1045.87 1147.33C1042.53 1144.4 1037.73 1140.13 1035.33 1138C1032.8 1135.73 1028.27 1131.87 1025.2 1129.33C1022.13 1126.8 1017.6 1122.8 1015.2 1120.67C1012.8 1118.4 1008 1114.27 1004.53 1111.33C1001.2 1108.4 996.667 1104.53 994.667 1102.67C992.533 1100.8 988 1096.93 984.533 1094C978.133 1088.53 970.4 1081.73 964.533 1076.27C960.933 1073.07 960 1072.67 960 1074.4ZM967.333 1109.47C973.467 1115.07 979.2 1120.13 986.133 1126C989.467 1128.93 994.267 1133.2 996.667 1135.47C1000.93 1139.6 1001.07 1139.73 998.933 1142.93C996.533 1146.53 993.2 1150.27 981.067 1163.07C971.6 1172.93 963.333 1176.4 954 1174.27C950.667 1173.47 948 1172.4 948 1171.73C948 1171.2 947.2 1170.67 946.267 1170.67C944.267 1170.67 935.6 1161.87 933.733 1158C929.467 1149.07 933.067 1135.47 942.267 1125.6C948.667 1118.8 955.467 1110.8 958.133 1106.93C960.4 1103.73 961.333 1104 967.333 1109.47Z" fill="black"/>
<path d="M844.533 1211.87C843.2 1213.2 841.067 1215.73 840 1217.33C838.933 1219.07 836.667 1221.87 835.067 1223.73C832.267 1226.8 832.133 1227.2 834.133 1231.87C835.2 1234.53 837.333 1238.4 838.8 1240.67C840.133 1242.8 844.667 1251.2 848.8 1259.33C852.933 1267.33 860 1281.2 864.667 1290C869.333 1298.8 876.8 1313.2 881.333 1322C889.733 1338.53 896 1349.73 897.733 1351.6C898.4 1352.13 899.2 1351.87 899.733 1351.07C901.867 1347.87 906.133 1342.13 909.067 1338.93C912.933 1334.53 912.8 1332.53 908 1325.47C905.733 1322.27 904 1318.93 904 1318.27C904 1317.47 902.4 1314.53 900.533 1311.87C896.933 1306.53 897.333 1303.73 902.533 1298.53C903.733 1297.33 905.6 1294.93 906.667 1293.33C907.733 1291.6 909.867 1288.8 911.333 1287.07C912.8 1285.33 915.2 1282.4 916.667 1280.53C918.133 1278.67 920.533 1275.73 922 1274C923.467 1272.27 925.6 1269.6 926.667 1267.87C927.733 1266.27 929.733 1263.87 930.933 1262.53C932.133 1261.2 933.867 1258.93 934.667 1257.33C935.733 1255.2 937.067 1254.67 939.733 1255.2C946 1256.27 949.333 1257.2 950.4 1257.87C951.067 1258.27 952.933 1258.8 954.8 1259.2C956.533 1259.6 959.467 1260.27 961.333 1260.67C968.933 1262.53 970.667 1262.67 970.667 1261.6C970.667 1260.93 971.733 1259.07 973.067 1257.47C974.267 1256 976.533 1253.07 978 1251.2C979.467 1249.2 981.733 1246.53 983.067 1245.2C984.533 1243.47 984.8 1242.67 983.733 1242.53C982.8 1242.53 981.067 1242.27 980 1242C977.867 1241.47 973.6 1240.4 969.333 1239.33C962.8 1237.73 960.4 1237.2 957.333 1236.53C955.467 1236.13 941.467 1232.67 926 1228.67C910.667 1224.67 896.533 1221.2 894.667 1220.8C891.467 1220.13 889.067 1219.6 882.667 1218C881.2 1217.6 878.8 1217.07 877.333 1216.67C875.867 1216.27 873.467 1215.73 872 1215.33C870.533 1214.93 868.133 1214.4 866.667 1214C865.2 1213.6 862.8 1213.07 861.333 1212.67C847.6 1209.2 847.333 1209.2 844.533 1211.87ZM866.4 1235.2C871.2 1236.53 875.2 1237.47 878.533 1238.13C880.4 1238.53 882.267 1239.07 882.933 1239.47C883.467 1239.87 885.2 1240.4 886.667 1240.8C888.133 1241.07 890.667 1241.6 892.4 1242.13C894 1242.53 896.8 1243.07 898.533 1243.47C900.4 1243.87 902.267 1244.4 902.933 1244.8C903.467 1245.2 905.2 1245.73 906.667 1246.13C908.133 1246.4 910.667 1246.93 912.267 1247.33C916.8 1248.27 917.6 1250 915.067 1253.07C913.733 1254.67 911.467 1257.6 910 1259.47C905.733 1264.93 902.133 1269.33 899.333 1272.67C897.867 1274.4 895.733 1277.07 894.667 1278.8C893.6 1280.4 891.6 1282.93 890.267 1284.27C887.867 1286.8 887.733 1286.67 884.4 1281.73C882.533 1278.93 879.733 1274.27 878.4 1271.33C876.933 1268.4 873.733 1262.4 871.333 1258C868.8 1253.6 865.467 1247.33 863.867 1244C862.267 1240.67 860 1236.8 858.8 1235.47C856.533 1232.8 856.8 1232.8 866.4 1235.2Z" fill="black"/>
<path d="M775.467 1304.27C774.133 1306.94 772.267 1309.87 771.2 1310.8C770.133 1311.6 769.333 1313.2 769.333 1314.14C769.333 1315.2 768.8 1316 768 1316C767.333 1316 766.667 1316.8 766.667 1317.87C766.667 1318.94 766 1320 765.067 1320.27C764.133 1320.67 765.333 1321.74 767.733 1322.8C770.133 1323.74 772 1325.07 772 1325.6C772 1326.27 772.933 1326.67 774 1326.67C775.067 1326.67 776 1327.2 776 1328C776 1328.67 776.667 1329.34 777.6 1329.34C778.4 1329.34 781.067 1330.8 783.467 1332.67C785.867 1334.54 788.4 1336 789.2 1336C790 1336 790.667 1336.54 790.667 1337.34C790.667 1338 791.6 1338.67 792.667 1338.67C793.733 1338.67 794.667 1339.07 794.667 1339.74C794.667 1340.67 798.667 1343.07 803.067 1344.8C804.267 1345.2 805.333 1346.14 805.333 1346.8C805.333 1347.47 806.267 1348 807.333 1348C810.133 1348 809.867 1351.07 806.667 1355.07C805.2 1356.94 804 1359.07 804 1359.87C804 1360.67 803.467 1361.34 802.667 1361.34C802 1361.34 801.333 1362.27 801.333 1363.34C801.333 1364.4 800.8 1365.34 800 1365.34C799.333 1365.34 798.667 1366 798.667 1366.94C798.667 1367.74 797.2 1370.4 795.333 1372.8C793.467 1375.2 792 1377.74 792 1378.54C792 1379.34 791.467 1380 790.667 1380C790 1380 789.333 1380.67 789.333 1381.6C789.333 1382.4 787.867 1385.07 786 1387.47C784.133 1389.87 782.667 1392.4 782.667 1393.2C782.667 1394 782.133 1394.67 781.333 1394.67C780.667 1394.67 780 1395.6 780 1396.67C780 1397.74 779.6 1398.67 778.933 1398.67C778.4 1398.67 777.2 1400.4 776.267 1402.67C774.267 1407.2 773.067 1407.6 770.133 1404.67C769.067 1403.6 767.6 1402.67 766.8 1402.67C766 1402.67 765.333 1402 765.333 1401.34C765.333 1400.54 764.667 1400 763.733 1400C762.933 1400 760.267 1398.54 757.867 1396.67C755.467 1394.8 752.933 1393.34 752.133 1393.34C751.333 1393.34 750.667 1392.67 750.667 1392C750.667 1391.2 749.733 1390.67 748.667 1390.67C747.6 1390.67 746.667 1390 746.667 1389.34C746.667 1388.54 746 1388 745.067 1388C744.267 1388 741.6 1386.54 739.2 1384.67C736.8 1382.8 734.4 1381.34 734 1381.34C733.467 1381.34 732.267 1380.4 731.067 1379.34C728.933 1377.07 726.667 1377.74 726.667 1380.8C726.667 1381.87 726.133 1382.67 725.333 1382.67C724.667 1382.67 724 1383.6 724 1384.67C724 1385.74 723.467 1386.67 722.667 1386.67C722 1386.67 721.333 1387.34 721.333 1388.14C721.333 1388.94 720.133 1391.34 718.533 1393.47C715.733 1397.47 716 1400 719.467 1400C720.533 1400 721.333 1400.54 721.333 1401.34C721.333 1402 722.267 1402.67 723.333 1402.67C724.4 1402.67 725.333 1403.07 725.333 1403.74C725.333 1404.67 729.333 1407.07 733.733 1408.8C734.933 1409.2 736 1410.14 736 1410.8C736 1411.47 736.933 1412 738 1412C739.067 1412 740 1412.54 740 1413.34C740 1414 740.667 1414.67 741.6 1414.67C742.4 1414.67 745.067 1416.14 747.467 1418C749.867 1419.87 752.4 1421.34 753.2 1421.34C754 1421.34 754.667 1421.87 754.667 1422.67C754.667 1423.34 755.6 1424 756.667 1424C757.733 1424 758.667 1424.54 758.667 1425.2C758.667 1425.87 759.733 1426.8 761.067 1427.2C765.333 1428.94 769.333 1431.34 769.333 1432.27C769.333 1432.94 770.267 1433.34 771.333 1433.34C772.4 1433.34 773.333 1433.87 773.333 1434.67C773.333 1435.34 774 1436 774.933 1436C775.733 1436 778.4 1437.47 780.8 1439.34C783.2 1441.2 785.733 1442.67 786.533 1442.67C787.333 1442.67 788 1443.2 788 1444C788 1444.67 788.933 1445.34 790 1445.34C791.067 1445.34 792 1445.74 792 1446.27C792 1446.94 794.4 1448.54 797.333 1449.87C800.267 1451.34 802.667 1452.94 802.667 1453.6C802.667 1454.14 803.6 1454.67 804.667 1454.67C805.733 1454.67 806.667 1455.2 806.667 1456C806.667 1456.67 807.333 1457.34 808.267 1457.34C809.067 1457.34 811.733 1458.8 814.133 1460.67C816.533 1462.54 819.067 1464 819.867 1464C820.667 1464 821.333 1464.54 821.333 1465.2C821.333 1465.87 822.267 1466.67 823.333 1467.07C824.533 1467.6 826.133 1466 828.133 1462C829.867 1458.67 831.6 1456 832.267 1456C832.8 1456 833.333 1455.07 833.333 1454C833.333 1452.94 833.867 1452 834.533 1452C835.2 1452 836 1450.8 836.4 1449.2C836.933 1447.2 836.4 1446.14 834.533 1445.74C833.2 1445.34 832 1444.54 832 1443.87C832 1443.2 831.333 1442.67 830.4 1442.67C829.6 1442.67 826.933 1441.2 824.533 1439.34C822.133 1437.47 819.6 1436 818.8 1436C818 1436 817.333 1435.34 817.333 1434.67C817.333 1433.87 816.4 1433.34 815.333 1433.34C814.267 1433.34 813.333 1432.94 813.333 1432.27C813.333 1431.74 810.933 1430.14 808 1428.8C805.067 1427.34 802.667 1425.74 802.667 1425.07C802.667 1424.54 801.733 1424 800.667 1424C799.6 1424 798.667 1423.6 798.667 1422.94C798.667 1422.4 796.933 1421.2 794.8 1420.27C792 1419.07 791.067 1417.87 791.6 1416C792 1414.54 792.8 1413.34 793.467 1413.34C794.133 1413.34 794.667 1412.67 794.667 1411.74C794.667 1410.94 796.133 1408.27 798 1405.87C799.867 1403.47 801.333 1400.94 801.333 1400.14C801.333 1399.34 802 1398.67 802.667 1398.67C803.467 1398.67 804 1397.74 804 1396.67C804 1395.6 804.4 1394.67 805.067 1394.67C805.6 1394.67 807.2 1392.27 808.533 1389.34C810 1386.4 811.6 1384 812.267 1384C812.8 1384 813.333 1383.07 813.333 1382C813.333 1380.94 814 1380 814.667 1380C815.467 1380 816 1379.34 816 1378.4C816 1377.6 817.467 1374.94 819.333 1372.54C821.2 1370.14 822.667 1367.6 822.667 1366.8C822.667 1366 823.333 1365.34 824 1365.34C824.8 1365.34 825.333 1364.4 825.333 1363.34C825.333 1362.27 825.733 1361.34 826.133 1361.34C828 1361.34 838.667 1367.2 838.667 1368.27C838.667 1368.8 839.6 1369.34 840.667 1369.34C841.733 1369.34 842.667 1369.87 842.667 1370.67C842.667 1371.34 843.333 1372 844.267 1372C845.067 1372 847.733 1373.47 850.133 1375.34C852.533 1377.2 855.067 1378.67 855.867 1378.67C856.667 1378.67 857.333 1379.2 857.333 1380C857.333 1380.67 858.267 1381.34 859.333 1381.34C860.4 1381.34 861.333 1381.87 861.333 1382.54C861.333 1383.2 862.4 1384.14 863.733 1384.54C868 1386.14 872 1388.67 872 1389.6C872 1390.14 872.933 1390.27 874 1389.87C875.067 1389.34 876 1388.27 876 1387.2C876 1386.14 876.667 1385.34 877.333 1385.34C878.133 1385.34 878.667 1384.67 878.667 1383.74C878.667 1382.94 880 1380.4 881.733 1378.14C886 1372.4 887.067 1369.34 884.667 1369.34C883.6 1369.34 882.667 1368.67 882.667 1368C882.667 1367.2 882 1366.67 881.067 1366.67C880.267 1366.67 877.6 1365.2 875.2 1363.34C872.8 1361.47 870.267 1360 869.467 1360C868.667 1360 868 1359.34 868 1358.67C868 1357.87 867.333 1357.34 866.4 1357.34C865.6 1357.34 862.933 1355.87 860.533 1354C858.133 1352.14 855.6 1350.67 854.8 1350.67C854 1350.67 853.333 1350 853.333 1349.34C853.333 1348.54 852.4 1348 851.333 1348C850.267 1348 849.333 1347.34 849.333 1346.67C849.333 1345.87 848.667 1345.34 847.733 1345.34C846.933 1345.34 844.267 1343.87 841.867 1342C839.467 1340.14 836.933 1338.67 836.133 1338.67C835.333 1338.67 834.667 1338 834.667 1337.34C834.667 1336.54 834 1336 833.067 1336C832.267 1336 829.6 1334.54 827.2 1332.67C824.8 1330.8 822.267 1329.34 821.467 1329.34C820.667 1329.34 820 1328.67 820 1328C820 1327.2 819.067 1326.67 818 1326.67C816.933 1326.67 816 1326 816 1325.34C816 1324.54 815.333 1324 814.4 1324C813.6 1324 810.933 1322.54 808.533 1320.67C806.133 1318.8 803.6 1317.34 802.8 1317.34C802 1317.34 801.333 1316.67 801.333 1316C801.333 1315.2 800.4 1314.67 799.333 1314.67C798.267 1314.67 797.333 1314.14 797.333 1313.47C797.333 1312.8 796.267 1311.87 795.067 1311.47C790.667 1309.74 786.667 1307.34 786.667 1306.4C786.667 1305.74 785.733 1305.34 784.667 1305.34C783.6 1305.34 782.667 1304.67 782.667 1304C782.667 1303.2 781.867 1302.67 780.8 1302.67C779.733 1302.67 778.667 1301.87 778.267 1300.94C778 1300.14 776.667 1301.6 775.467 1304.27Z" fill="black"/>
<path d="M684.667 1448.13C682.134 1453.07 680 1457.6 680 1458.4C680 1460.13 697.867 1470.4 714.667 1478.27C722.4 1481.87 729.467 1485.87 730.4 1486.93C732.934 1490.13 731.334 1500.93 726.8 1511.33C725.334 1514.67 724.4 1517.33 724.8 1517.33C725.2 1517.33 722.8 1520.93 719.467 1525.2C711.734 1535.2 707.734 1537.2 697.067 1536.8C688.8 1536.53 681.6 1533.6 668.667 1525.33C666.534 1524 661.2 1521.33 656.934 1519.47L649.334 1516L644 1526.67L638.8 1537.47L657.067 1546.13C667.067 1550.93 675.6 1555.47 675.734 1556.13C676 1556.8 677.334 1557.33 678.534 1557.33C679.867 1557.33 681.334 1557.73 681.867 1558.27C682.4 1558.93 683.467 1559.47 684.134 1559.47C684.8 1559.6 685.467 1559.73 685.734 1560C688.534 1562.27 709.2 1562 711.467 1559.6C712 1559.07 713.334 1558.67 714.267 1558.67C716.4 1558.67 727.6 1550.13 730.4 1546.4C731.334 1545.2 732.934 1543.2 734 1542.13C735.067 1541.07 736 1539.6 736 1538.93C736 1538.27 737.067 1536.27 738.4 1534.53C740.4 1531.87 746.534 1517.47 747.6 1512.67C747.734 1511.87 748.267 1509.47 748.8 1507.33C749.334 1505.07 749.6 1502.27 749.6 1501.07C749.467 1496.93 751.867 1497.07 759.734 1501.47C763.867 1503.87 773.334 1508.8 780.8 1512.53L794.267 1519.33L796.4 1514.67C797.734 1512.13 800.134 1507.6 801.867 1504.8L805.067 1499.6L798.934 1495.6C795.467 1493.47 785.467 1488 776.667 1483.73C767.867 1479.33 752.267 1471.33 742 1466C731.734 1460.67 715.734 1452.53 706.4 1447.87L689.334 1439.33L684.667 1448.13Z" fill="black"/>
<path d="M642.267 1581.6C638 1583.07 632 1585.6 629.2 1587.33C623.733 1590.4 608 1604.67 608 1606.4C608 1607.07 606.933 1608.67 605.733 1610.13C602.667 1613.47 596.933 1624 598.133 1624C598.533 1624 598.133 1624.93 597.2 1626.27C596.133 1627.47 595.467 1628.67 595.733 1628.93C595.867 1629.07 596 1629.47 595.867 1629.6C595.867 1629.87 595.6 1630.93 595.333 1632C595.067 1633.07 594.4 1635.47 594 1637.33C593.067 1641.2 592.933 1662.13 593.733 1666C594.133 1667.47 595.067 1670.4 596 1672.67C596.8 1674.8 597.467 1676.67 597.333 1676.67C597.333 1676.67 597.867 1678.67 598.8 1680.93C599.6 1683.33 600.8 1685.33 601.467 1685.33C602.133 1685.33 602.667 1686.27 602.667 1687.33C602.667 1688.4 603.333 1689.33 604.267 1689.33C605.067 1689.33 605.467 1689.6 605.067 1690.13C604.267 1690.93 615.6 1701.6 622.667 1706.8C627.067 1710 629.867 1711.47 632.4 1711.87C632.933 1711.87 635.067 1712.8 637.067 1713.87C646.8 1718.93 671.6 1718.93 681.867 1713.87C684 1712.8 686.533 1712 687.467 1712C688.4 1712 689.333 1711.6 689.6 1710.93C689.867 1710.4 692.4 1708.4 695.333 1706.27C702.667 1701.2 710 1694.4 711.067 1691.6C711.467 1690.4 712.533 1689.33 713.2 1689.33C714.267 1689.33 720.533 1677.6 720.267 1676C720.133 1675.6 721.067 1674 722.133 1672.27C723.2 1670.67 723.733 1669.33 723.2 1669.33C722.667 1669.33 723.067 1668.4 724 1667.33C724.933 1666.27 725.333 1665.33 724.933 1665.33C724.533 1665.33 724.933 1662.67 726 1659.33C728.533 1650.67 727.6 1632 724 1622.67C722.533 1618.67 720.933 1614.27 720.4 1612.93C720 1611.73 719.2 1610.67 718.533 1610.67C717.867 1610.67 717.333 1610 717.333 1609.2C717.333 1608.4 716.533 1607.07 715.733 1606.13C714.8 1605.2 712.4 1602.67 710.533 1600.53C706.8 1596.4 700.4 1590.67 699.333 1590.67C699.067 1590.67 696.533 1589.33 693.733 1587.6C689.067 1584.93 682.933 1582.27 676.667 1580.4C675.2 1580 668.667 1579.47 662 1579.2C652.533 1578.93 648.267 1579.47 642.267 1581.6ZM669.6 1603.33C675.333 1604.4 680.267 1606.53 686 1610.4C693.733 1615.6 696.933 1619.2 701.6 1628.4C705.2 1635.6 705.733 1638.13 705.733 1647.33C705.867 1657.6 705.333 1659.47 699.867 1671.33C697.6 1676.13 687.467 1686.13 682 1688.93C673.733 1693.33 669.467 1694.27 659.867 1694C633.467 1693.33 613.733 1673.47 614.4 1648C614.533 1640.93 614.667 1640.27 617.867 1630.93C619.2 1627.2 620.8 1624 621.467 1624C622.133 1624 622.667 1623.2 622.667 1622.27C622.8 1617.2 636.8 1606.93 647.733 1603.87C656 1601.6 659.867 1601.47 669.6 1603.33Z" fill="black"/>
<path d="M564.8 1706.4C564.534 1706.93 559.067 1723.47 552.667 1743.33C546.267 1763.07 540.4 1780.13 539.734 1780.93C538.934 1781.87 538.8 1782.67 539.334 1782.67C539.867 1782.67 539.6 1783.6 538.667 1784.67C537.734 1785.73 537.467 1786.67 538 1786.67C538.534 1786.67 538.267 1787.6 537.334 1788.67C536.4 1789.73 536.134 1790.67 536.667 1790.67C537.2 1790.67 536.934 1791.6 536 1792.67C535.067 1793.73 534.8 1794.67 535.334 1794.67C535.867 1794.67 535.6 1795.6 534.667 1796.67C533.734 1797.73 533.467 1798.67 534 1798.67C534.534 1798.67 534.267 1799.6 533.334 1800.67C532.4 1801.73 532.134 1802.67 532.667 1802.67C533.2 1802.67 533.067 1803.47 532.4 1804.27C530.667 1806.67 531.067 1810 533.067 1810.13C533.867 1810.27 534.934 1810.53 535.334 1810.67C535.734 1810.8 536.667 1811.2 537.334 1811.33C538.134 1811.47 538.934 1811.87 539.334 1812C539.734 1812.13 540.667 1812.53 541.334 1812.67C542.134 1812.8 542.934 1813.2 543.334 1813.33C543.734 1813.47 544.4 1813.73 545.067 1813.87C545.6 1814 546.667 1814.53 547.6 1815.07C548.667 1815.73 551.067 1810.13 555.6 1796.53C559.067 1785.73 562.8 1776.67 563.734 1776.27C565.334 1775.73 598.667 1785.87 608 1789.73C609.867 1790.53 611.734 1791.2 612.4 1791.33C612.934 1791.6 613.6 1791.87 614 1792C614.4 1792.13 615.334 1792.53 616 1792.67C616.8 1792.8 617.6 1793.2 618 1793.33C618.4 1793.47 619.334 1793.87 620 1794C620.8 1794.13 621.6 1794.53 622 1794.67C622.4 1794.8 623.334 1795.2 624 1795.33C624.8 1795.47 625.6 1795.87 626 1796C626.4 1796.13 627.334 1796.53 628 1796.67C628.8 1796.8 629.6 1797.2 630 1797.33C630.4 1797.47 631.334 1797.87 632 1798C632.8 1798.13 633.6 1798.53 634 1798.67C634.4 1798.8 635.334 1799.2 636 1799.33C636.8 1799.47 637.6 1799.87 638 1800C638.4 1800.13 639.067 1800.4 639.734 1800.67C640.267 1800.8 641.6 1801.33 642.667 1801.73C643.734 1802.27 649.6 1804.27 655.6 1806.4L666.534 1810.27L670.4 1798.8L674.134 1787.47L658.934 1782.53C650.667 1779.73 642.8 1777.07 641.6 1776.53C640.4 1776 638.934 1775.47 638.4 1775.33C637.734 1775.07 637.067 1774.8 636.667 1774.67C636.267 1774.53 635.467 1774.13 634.667 1774C634 1773.87 633.067 1773.47 632.667 1773.33C632.267 1773.2 631.467 1772.8 630.667 1772.67C630 1772.53 629.067 1772.13 628.667 1772C628.267 1771.87 627.467 1771.47 626.667 1771.33C626 1771.2 625.067 1770.8 624.667 1770.67C624.267 1770.53 623.467 1770.13 622.667 1770C622 1769.87 621.067 1769.47 620.667 1769.33C620.267 1769.2 619.467 1768.8 618.667 1768.67C618 1768.53 617.067 1768.13 616.667 1768C616.267 1767.87 615.467 1767.47 614.667 1767.33C614 1767.2 613.067 1766.8 612.667 1766.67C612.267 1766.53 611.6 1766.27 611.067 1766C610.4 1765.87 609.067 1765.33 607.867 1764.8C606.667 1764.27 597.867 1761.33 588.534 1758.27C573.2 1753.2 570.534 1751.6 572 1748.67C572.134 1748.27 572.534 1747.33 572.667 1746.67C572.8 1745.87 573.2 1745.07 573.334 1744.67C573.467 1744.27 573.734 1743.6 574 1742.93C574.134 1742.4 574.667 1741.07 575.067 1740C575.6 1738.93 578 1732.13 580.4 1725.07L584.934 1712.13L575.067 1708.8C569.734 1707.07 565.067 1706 564.8 1706.4Z" fill="black"/>
<path d="M523.2 1833.6C522.667 1836 522 1838.53 521.867 1839.33C521.6 1840 521.2 1842 520.8 1843.73C520.4 1845.33 519.867 1847.2 519.467 1847.73C519.067 1848.4 518.533 1850.4 518.133 1852.4C517.6 1854.4 517.067 1857.6 516.533 1859.6C516.133 1861.6 515.6 1863.6 515.2 1864.27C514.533 1865.33 514 1867.2 512.533 1874.53C512.133 1876.4 511.6 1878.27 511.2 1878.93C510.533 1880 510 1881.87 508.533 1889.2C508.133 1891.07 507.6 1892.93 507.2 1893.6C506.533 1894.67 506 1896.53 504.533 1903.87C504.133 1905.6 503.333 1908.13 502.533 1909.6C501.867 1910.93 501.467 1912 501.867 1912C502.267 1912 501.6 1914.13 500.533 1916.67C499.467 1919.2 499.067 1921.33 499.6 1921.47C500.267 1921.47 501.6 1921.73 502.667 1922C503.733 1922.27 506.4 1922.93 508.533 1923.33C510.667 1923.73 512.933 1924.4 513.6 1924.8C514.667 1925.47 516.533 1926 523.867 1927.47C525.733 1927.87 527.6 1928.4 528.267 1928.8C529.333 1929.47 531.2 1930 538.533 1931.47C540.4 1931.87 542.267 1932.4 542.933 1932.8C543.467 1933.2 545.067 1933.73 546.267 1934C547.6 1934.4 551.067 1935.2 554 1936C556.933 1936.8 560.4 1937.6 561.733 1938C562.933 1938.27 564.533 1938.8 565.067 1939.2C565.733 1939.6 567.6 1940.13 569.467 1940.53C576.8 1942 578.667 1942.53 579.733 1943.2C580.4 1943.6 582.267 1944.13 584.133 1944.53C591.467 1946 593.333 1946.53 594.4 1947.2C595.067 1947.6 597.067 1948.13 599.067 1948.53C601.067 1949.07 604.267 1949.6 606.267 1950.13C608.267 1950.53 610.267 1951.07 610.933 1951.47C611.867 1952.13 613.733 1952.53 620.933 1954.13C622.933 1954.53 624.4 1953.87 625.333 1952C626.133 1950.53 626.4 1949.33 626.133 1949.33C625.733 1949.33 626 1947.73 626.8 1945.6C628.267 1942 628.8 1939.87 630.133 1933.47C630.533 1931.6 631.067 1929.73 631.467 1929.07C631.867 1928.53 632.4 1926.93 632.667 1925.73C633.067 1924.4 633.867 1920.93 634.667 1918C635.467 1915.07 636.267 1911.6 636.667 1910.27C636.933 1909.07 637.467 1907.47 637.867 1906.93C638.267 1906.27 638.8 1904.4 639.2 1902.53C640.667 1895.2 641.2 1893.33 641.867 1892.27C642.267 1891.6 642.8 1889.73 643.2 1887.87C644.667 1880.53 645.2 1878.67 645.867 1877.6C646.267 1876.93 646.8 1875.07 647.2 1873.2C648.8 1865.73 649.2 1863.87 650 1862.67C650.4 1861.87 650.4 1861.33 649.733 1861.2C649.2 1861.2 647.733 1860.93 646.667 1860.67C645.6 1860.4 642.933 1859.73 640.8 1859.33C638.667 1858.93 635.733 1857.87 634.4 1857.2C631.2 1855.47 630.8 1855.87 629.867 1860.8C629.467 1862.8 628.933 1864.93 628.533 1865.6C627.867 1866.67 627.333 1868.53 625.867 1875.87C625.467 1877.73 624.933 1879.6 624.533 1880.27C623.867 1881.33 623.333 1883.2 621.867 1890.53C621.467 1892.4 620.933 1894.27 620.533 1894.93C619.867 1896 619.333 1897.87 617.867 1905.2C617.467 1907.07 616.933 1908.93 616.533 1909.6C615.867 1910.67 615.2 1912.93 613.733 1920C612.667 1924.93 610.533 1926.93 607.467 1926C602.4 1924.53 600.667 1924.13 595.333 1922.67C592.4 1921.87 588.8 1920.93 587.333 1920.53C585.867 1920.13 582.933 1919.47 580.933 1919.07C576.933 1918.27 576.8 1917.6 579.333 1908C579.733 1906.13 580.4 1903.2 580.8 1901.47C581.2 1899.6 581.733 1897.73 582.133 1897.07C582.533 1896.53 583.067 1894.93 583.333 1893.73C583.733 1892.4 584.533 1888.93 585.333 1886C586.133 1883.07 586.933 1879.6 587.333 1878.27C587.6 1877.07 588.133 1875.47 588.533 1874.93C588.933 1874.27 589.467 1872.4 589.867 1870.53C590.667 1866.8 591.6 1863.2 592.667 1859.2C593.2 1857.47 592.933 1856.4 591.733 1856.27C588.933 1856.13 582.267 1854.53 581.067 1853.87C578.4 1852.27 573.733 1852.13 573.6 1853.73C573.467 1856.4 571.867 1863.07 571.2 1864.27C570.533 1865.33 570 1867.2 568.533 1874.53C568.133 1876.4 567.6 1878.27 567.2 1878.93C566.533 1880 566 1881.87 564.533 1889.2C564.133 1890.93 563.2 1893.73 562.4 1895.2C561.6 1896.8 561.067 1898 561.2 1898C561.733 1898 559.867 1905.73 558.533 1909.07C557.6 1911.33 556.667 1912 554.8 1911.33C552.267 1910.53 549.467 1909.87 542.8 1908.53C540.933 1908.13 539.067 1907.6 538.4 1907.2C537.467 1906.53 536.133 1906.27 530 1904.93C526.933 1904.27 525.467 1902.4 526.133 1900C526.4 1898.53 526.933 1896.13 527.2 1894.67C527.6 1893.2 528.133 1891.47 528.533 1890.93C528.933 1890.27 529.467 1888.4 529.867 1886.53C531.333 1879.2 531.867 1877.33 532.533 1876.27C533.2 1875.2 533.467 1874 535.333 1864.8C535.733 1862.67 536.4 1860.4 536.8 1859.73C537.467 1858.67 538 1856.8 539.467 1849.47C539.867 1847.6 540.4 1845.73 540.8 1845.07C541.2 1844.53 541.733 1842.93 542 1841.73C542.267 1840.4 542.8 1838.4 543.333 1837.07C544 1835.47 543.2 1834.67 539.733 1833.87C537.333 1833.33 534.8 1832.67 534 1832.53C533.333 1832.27 531.333 1831.87 529.6 1831.47C528 1831.07 526.133 1830.53 525.467 1830C524.8 1829.6 523.733 1831.2 523.2 1833.6Z" fill="black"/>
<path d="M506.533 1971.2C504 1972 501.2 1973.2 500.267 1974C495.6 1977.6 489.333 1984.27 489.333 1985.33C489.333 1986.13 488.667 1986.67 487.867 1986.67C487.2 1986.67 486.933 1987.2 487.333 1988C487.733 1988.67 487.467 1989.33 486.533 1989.33C485.6 1989.33 485.333 1989.73 485.733 1990.13C486.133 1990.67 485.867 1992.27 485.067 1993.87C484.133 1995.33 483.333 1997.07 483.2 1997.6C483.067 1998.27 482.933 1998.8 482.667 1998.93C482.267 1999.6 480.133 2008.8 479.333 2014C479.067 2016.13 478.4 2019.47 478 2021.33C477.067 2026 475.867 2032.13 475.333 2035.33C474.933 2037.87 474.133 2042.27 472.667 2049.33C472.267 2051.2 471.6 2054.4 471.2 2056.67C470.667 2058.8 470.267 2062.13 470.133 2063.87C470 2067.07 470.133 2067.2 478.667 2068.53C482.933 2069.2 489.067 2070.4 493.333 2071.33C495.2 2071.73 498.533 2072.4 500.667 2072.67C502.933 2073.07 506.133 2073.6 508 2074C513.2 2075.07 519.067 2076.13 522.667 2076.67C524.533 2077.07 527.467 2077.6 529.333 2078C534 2078.93 540 2080.13 544 2080.67C545.867 2081.07 548.8 2081.6 550.667 2082C555.333 2082.93 561.333 2084.13 565.333 2084.67C567.2 2085.07 570.133 2085.6 572 2086C575.067 2086.67 578 2087.2 586 2088.8C596.133 2090.67 597.333 2090.67 597.467 2088.27C597.467 2087.07 597.733 2084.8 598.133 2083.33C598.4 2081.87 598.933 2079.2 599.2 2077.33C599.867 2073.47 601.067 2067.47 602 2062.67C602.4 2060.8 602.933 2057.47 603.333 2055.33C603.6 2053.07 604.267 2049.87 604.667 2048C606.533 2039.33 607.467 2033.47 608.8 2023.33C609.2 2019.6 609.867 2016.27 610.267 2015.6C610.667 2014.8 609.733 2008.53 607.333 1998C605.333 1988.8 595.867 1979.33 586 1976.67C579.733 1974.8 569.067 1974.93 565.2 1976.8C563.2 1977.73 561.333 1978.13 560.8 1977.73C560.4 1977.2 560 1977.6 560 1978.4C560 1979.33 559.2 1980 558.133 1980C557.2 1980 555.2 1981.6 553.867 1983.47C552.533 1985.33 550.667 1987.6 549.867 1988.53C549.067 1989.33 547.867 1991.2 546.933 1992.67C546 1994.27 545.333 1994.53 545.333 1993.6C545.333 1990.13 540.8 1982 536.8 1978.13C529.467 1971.33 516.8 1968.4 506.533 1971.2ZM526.4 1997.2C535.067 2001.73 536.8 2011.07 532.667 2030.67C530.933 2039.07 529.2 2048.8 529.067 2051.73C528.933 2053.07 527.333 2053.33 522.8 2052.67C513.867 2051.47 511.867 2051.07 499.333 2048.53C497.2 2048 494.533 2047.6 493.6 2047.6C491.867 2047.6 492 2043.6 494 2034.67C494.4 2032.8 495.067 2029.47 495.333 2027.33C495.733 2025.07 496.267 2021.87 496.667 2020C497.067 2018.13 497.6 2015.07 498 2013.2C499.067 2007.2 504.933 1998.27 508.933 1996.53C514.4 1994.13 520.8 1994.4 526.4 1997.2ZM578.267 1999.87C580.667 2000.53 584.267 2002.67 586.267 2004.53C589.733 2007.87 590 2008.67 590 2019.07C589.867 2025.07 589.467 2032.13 588.8 2034.67C588.267 2037.2 587.6 2040.8 587.333 2042.67C586.933 2044.53 586.4 2047.47 586 2049.33C584.533 2056.4 583.733 2060.67 583.6 2062.4C583.6 2064.13 579.867 2064 570.667 2062C568.8 2061.6 565.6 2061.07 563.333 2060.67C559.733 2060.13 555.2 2059.2 549.333 2058C548.267 2057.73 546.933 2057.47 546.267 2057.47C545.733 2057.33 545.6 2055.73 546 2053.6C546.4 2051.6 547.067 2048.13 547.333 2046C547.733 2043.73 548.267 2040.53 548.667 2038.67C549.867 2032.8 550.933 2027.47 551.2 2024.67C554 2004 563.2 1995.6 578.267 1999.87Z" fill="black"/>
<path d="M572.4 2112.27C572.267 2116.67 570.8 2126.8 570.133 2127.87C569.2 2129.34 565.333 2129.07 543.067 2125.87C540.667 2125.6 536.667 2125.07 534.4 2124.8C526.4 2123.6 516.667 2122.4 513.333 2122C511.467 2121.87 507.067 2121.2 503.333 2120.67C499.733 2120.14 495.2 2119.6 493.333 2119.34C491.467 2119.07 487.067 2118.54 483.333 2118.14C479.733 2117.6 474.8 2116.94 472.667 2116.67C470.4 2116.4 466.933 2115.74 464.933 2115.34C461.867 2114.54 461.333 2114.8 461.2 2117.47C461.067 2119.2 460.8 2121.87 460.667 2123.34C458.933 2136.67 458.933 2138.67 460.4 2138.8C461.333 2138.8 463.2 2139.07 464.667 2139.34C466.133 2139.6 470 2140.14 473.333 2140.54C476.667 2140.94 481.733 2141.6 484.667 2142C487.6 2142.54 491.867 2143.07 494 2143.34C498.267 2143.74 508.933 2145.07 515.333 2146C528.267 2147.87 539.733 2149.34 545.333 2150C547.2 2150.27 552 2150.8 556 2151.34C560 2151.87 564.133 2152.4 565.067 2152.4C566.8 2152.4 566.667 2158.94 564.8 2172C564.533 2173.87 563.867 2178.27 563.333 2182C562.933 2185.6 562.267 2190.8 561.867 2193.34C561.467 2195.87 560.933 2200.14 560.667 2202.67C558.933 2217.47 558.267 2219.34 555.067 2218.14C554 2217.6 550.267 2216.94 546.8 2216.54C541.067 2215.87 538 2215.47 527.333 2214C520 2213.07 510 2211.74 506.667 2211.34C504.8 2211.2 500.4 2210.54 496.667 2210C493.067 2209.47 488.533 2208.94 486.667 2208.67C482.933 2208.27 472.267 2206.8 465.333 2205.87C452.8 2204.14 449.733 2204.14 449.733 2205.74C449.6 2207.6 448.133 2220.8 447.867 2222.27C447.333 2225.47 448.267 2227.47 450.4 2227.47C451.6 2227.6 455.733 2228.14 459.333 2228.67C463.067 2229.2 467.467 2229.74 469.333 2230C472.933 2230.4 483.333 2231.74 490.4 2232.8C492.667 2233.07 496.667 2233.6 499.067 2233.87C506 2234.94 516.4 2236.27 520 2236.67C521.867 2236.94 526.4 2237.47 530 2238C533.733 2238.54 538.133 2239.2 540 2239.34C543.467 2239.74 553.6 2241.07 561.333 2242.14C575.2 2244 576 2244 576.133 2240.94C576.533 2235.34 577.067 2230.94 579.467 2213.6C579.733 2211.34 580.267 2207.34 580.533 2204.94C581.6 2198 582.933 2187.6 583.333 2183.34C583.6 2181.07 584.133 2176.94 584.667 2174C585.067 2171.07 585.733 2166.54 586 2164C586.267 2161.47 586.8 2157.2 587.2 2154.67C587.6 2152.14 588.267 2147.07 588.667 2143.47C589.067 2139.87 589.6 2136.54 590 2136C590.667 2135.07 594.4 2135.2 604.667 2136.67C617.733 2138.54 618.667 2138.54 618.8 2135.47C618.933 2133.87 619.2 2131.2 619.333 2129.34C620.8 2118.4 620.8 2116.4 619.467 2116.4C618.133 2116.4 614.133 2115.87 600 2114C587.067 2112.27 584.133 2111.87 578.533 2111.34C574.267 2110.8 572.4 2111.07 572.4 2112.27Z" fill="black"/>
</svg>
